<svg aria-hidden="true" style="position: absolute; width: 0; height: 0; overflow: hidden;" version="1.1" xmlns="http://www.w3.org/2000/svg" xmlns:xlink="http://www.w3.org/1999/xlink">
<defs>
<symbol id="icon-access_alarms" viewBox="0 0 24 24">
<title>access_alarms</title>
<path d="M12 20.016c3.891 0 6.984-3.141 6.984-7.031s-3.094-6.984-6.984-6.984-6.984 3.094-6.984 6.984 3.094 7.031 6.984 7.031zM12 3.984c5.016 0 9 3.984 9 9s-3.984 9-9 9-9-3.984-9-9 3.984-9 9-9zM12.516 8.016v5.297l3.984 2.391-0.797 1.219-4.688-2.906v-6h1.5zM7.922 3.422l-4.641 3.797-1.266-1.5 4.594-3.797zM21.984 5.719l-1.266 1.5-4.641-3.938 1.313-1.5z"></path>
</symbol>
<symbol id="icon-schedule" viewBox="0 0 24 24">
<title>schedule</title>
<path d="M12.516 6.984v5.25l4.5 2.672-0.75 1.266-5.25-3.188v-6h1.5zM12 20.016c4.406 0 8.016-3.609 8.016-8.016s-3.609-8.016-8.016-8.016-8.016 3.609-8.016 8.016 3.609 8.016 8.016 8.016zM12 2.016c5.531 0 9.984 4.453 9.984 9.984s-4.453 9.984-9.984 9.984-9.984-4.453-9.984-9.984 4.453-9.984 9.984-9.984z"></path>
</symbol>
<symbol id="icon-account_box" viewBox="0 0 24 24">
<title>account_box</title>
<path d="M6 17.016v0.984h12v-0.984c0-2.016-3.984-3.094-6-3.094s-6 1.078-6 3.094zM15 9c0-1.641-1.359-3-3-3s-3 1.359-3 3 1.359 3 3 3 3-1.359 3-3zM3 5.016c0-1.078 0.891-2.016 2.016-2.016h13.969c1.078 0 2.016 0.938 2.016 2.016v13.969c0 1.078-0.938 2.016-2.016 2.016h-13.969c-1.125 0-2.016-0.938-2.016-2.016v-13.969z"></path>
</symbol>
<symbol id="icon-account_circle" viewBox="0 0 24 24">
<title>account_circle</title>
<path d="M12 19.219c2.484 0 4.688-1.313 6-3.234-0.047-1.969-4.031-3.094-6-3.094-2.016 0-5.953 1.125-6 3.094 1.313 1.922 3.516 3.234 6 3.234zM12 5.016c-1.641 0-3 1.359-3 3s1.359 3 3 3 3-1.359 3-3-1.359-3-3-3zM12 2.016c5.531 0 9.984 4.453 9.984 9.984s-4.453 9.984-9.984 9.984-9.984-4.453-9.984-9.984 4.453-9.984 9.984-9.984z"></path>
</symbol>
<symbol id="icon-add" viewBox="0 0 24 24">
<title>add</title>
<path d="M18.984 12.984h-6v6h-1.969v-6h-6v-1.969h6v-6h1.969v6h6v1.969z"></path>
</symbol>
<symbol id="icon-add_box" viewBox="0 0 24 24">
<title>add_box</title>
<path d="M17.016 12.984v-1.969h-4.031v-4.031h-1.969v4.031h-4.031v1.969h4.031v4.031h1.969v-4.031h4.031zM18.984 3c1.078 0 2.016 0.938 2.016 2.016v13.969c0 1.078-0.938 2.016-2.016 2.016h-13.969c-1.125 0-2.016-0.938-2.016-2.016v-13.969c0-1.078 0.891-2.016 2.016-2.016h13.969z"></path>
</symbol>
<symbol id="icon-add_circle" viewBox="0 0 24 24">
<title>add_circle</title>
<path d="M17.016 12.984v-1.969h-4.031v-4.031h-1.969v4.031h-4.031v1.969h4.031v4.031h1.969v-4.031h4.031zM12 2.016c5.531 0 9.984 4.453 9.984 9.984s-4.453 9.984-9.984 9.984-9.984-4.453-9.984-9.984 4.453-9.984 9.984-9.984z"></path>
</symbol>
<symbol id="icon-control_point" viewBox="0 0 24 24">
<title>control_point</title>
<path d="M12 20.016c4.406 0 8.016-3.609 8.016-8.016s-3.609-8.016-8.016-8.016-8.016 3.609-8.016 8.016 3.609 8.016 8.016 8.016zM12 2.016c5.531 0 9.984 4.453 9.984 9.984s-4.453 9.984-9.984 9.984-9.984-4.453-9.984-9.984 4.453-9.984 9.984-9.984zM12.984 6.984v4.031h4.031v1.969h-4.031v4.031h-1.969v-4.031h-4.031v-1.969h4.031v-4.031h1.969z"></path>
</symbol>
<symbol id="icon-apps" viewBox="0 0 24 24">
<title>apps</title>
<path d="M15.984 20.016v-4.031h4.031v4.031h-4.031zM15.984 14.016v-4.031h4.031v4.031h-4.031zM9.984 8.016v-4.031h4.031v4.031h-4.031zM15.984 3.984h4.031v4.031h-4.031v-4.031zM9.984 14.016v-4.031h4.031v4.031h-4.031zM3.984 14.016v-4.031h4.031v4.031h-4.031zM3.984 20.016v-4.031h4.031v4.031h-4.031zM9.984 20.016v-4.031h4.031v4.031h-4.031zM3.984 8.016v-4.031h4.031v4.031h-4.031z"></path>
</symbol>
<symbol id="icon-archive" viewBox="0 0 24 24">
<title>archive</title>
<path d="M5.109 5.016h13.781l-0.938-1.031h-12zM12 17.484l5.484-5.484h-3.469v-2.016h-4.031v2.016h-3.469zM20.531 5.25c0.281 0.328 0.469 0.797 0.469 1.266v12.469c0 1.078-0.938 2.016-2.016 2.016h-13.969c-1.078 0-2.016-0.938-2.016-2.016v-12.469c0-0.469 0.188-0.938 0.469-1.266l1.359-1.688c0.281-0.328 0.703-0.563 1.172-0.563h12c0.469 0 0.891 0.234 1.172 0.563z"></path>
</symbol>
<symbol id="icon-arrow_back" viewBox="0 0 24 24">
<title>arrow_back</title>
<path d="M20.016 11.016v1.969h-12.188l5.578 5.625-1.406 1.406-8.016-8.016 8.016-8.016 1.406 1.406-5.578 5.625h12.188z"></path>
</symbol>
<symbol id="icon-arrow_downward" viewBox="0 0 24 24">
<title>arrow_downward</title>
<path d="M20.016 12l-8.016 8.016-8.016-8.016 1.453-1.406 5.578 5.578v-12.188h1.969v12.188l5.625-5.578z"></path>
</symbol>
<symbol id="icon-arrow_drop_down" viewBox="0 0 24 24">
<title>arrow_drop_down</title>
<path d="M6.984 9.984h10.031l-5.016 5.016z"></path>
</symbol>
<symbol id="icon-arrow_drop_up" viewBox="0 0 24 24">
<title>arrow_drop_up</title>
<path d="M6.984 14.016l5.016-5.016 5.016 5.016h-10.031z"></path>
</symbol>
<symbol id="icon-arrow_forward" viewBox="0 0 24 24">
<title>arrow_forward</title>
<path d="M12 3.984l8.016 8.016-8.016 8.016-1.406-1.406 5.578-5.625h-12.188v-1.969h12.188l-5.578-5.625z"></path>
</symbol>
<symbol id="icon-arrow_upward" viewBox="0 0 24 24">
<title>arrow_upward</title>
<path d="M3.984 12l8.016-8.016 8.016 8.016-1.453 1.406-5.578-5.578v12.188h-1.969v-12.188l-5.625 5.578z"></path>
</symbol>
<symbol id="icon-flag" viewBox="0 0 24 24">
<title>flag</title>
<path d="M14.391 6h5.625v9.984h-7.031l-0.375-1.969h-5.625v6.984h-1.969v-17.016h9z"></path>
</symbol>
<symbol id="icon-attach_file" viewBox="0 0 24 24">
<title>attach_file</title>
<path d="M16.5 6h1.5v11.484c0 3.047-2.438 5.531-5.484 5.531s-5.531-2.484-5.531-5.531v-12.469c0-2.203 1.828-4.031 4.031-4.031s3.984 1.828 3.984 4.031v10.5c0 1.359-1.125 2.484-2.484 2.484s-2.531-1.125-2.531-2.484v-9.516h1.5v9.516c0 0.563 0.469 0.984 1.031 0.984s0.984-0.422 0.984-0.984v-10.5c0-1.359-1.125-2.531-2.484-2.531s-2.531 1.172-2.531 2.531v12.469c0 2.203 1.828 4.031 4.031 4.031s3.984-1.828 3.984-4.031v-11.484z"></path>
</symbol>
<symbol id="icon-autorenew" viewBox="0 0 24 24">
<title>autorenew</title>
<path d="M18.75 7.734c0.797 1.219 1.266 2.719 1.266 4.266 0 4.406-3.609 8.016-8.016 8.016v3l-3.984-4.031 3.984-3.984v3c3.328 0 6-2.672 6-6 0-1.031-0.281-1.969-0.703-2.813zM12 6c-3.328 0-6 2.672-6 6 0 1.031 0.234 1.969 0.703 2.813l-1.453 1.453c-0.797-1.219-1.266-2.719-1.266-4.266 0-4.406 3.609-8.016 8.016-8.016v-3l3.984 4.031-3.984 3.984v-3z"></path>
</symbol>
<symbol id="icon-block" viewBox="0 0 24 24">
<title>block</title>
<path d="M12 20.016c4.406 0 8.016-3.609 8.016-8.016 0-1.828-0.609-3.563-1.688-4.922l-11.25 11.25c1.359 1.078 3.094 1.688 4.922 1.688zM3.984 12c0 1.828 0.609 3.563 1.688 4.922l11.25-11.25c-1.359-1.078-3.094-1.688-4.922-1.688-4.406 0-8.016 3.609-8.016 8.016zM12 2.016c5.531 0 9.984 4.453 9.984 9.984s-4.453 9.984-9.984 9.984-9.984-4.453-9.984-9.984 4.453-9.984 9.984-9.984z"></path>
</symbol>
<symbol id="icon-class" viewBox="0 0 24 24">
<title>class</title>
<path d="M6 3.984v8.016l2.484-1.5 2.531 1.5v-8.016h-5.016zM18 2.016c1.078 0 2.016 0.891 2.016 1.969v16.031c0 1.078-0.938 1.969-2.016 1.969h-12c-1.078 0-2.016-0.891-2.016-1.969v-16.031c0-1.078 0.938-1.969 2.016-1.969h12z"></path>
</symbol>
<symbol id="icon-turned_in" viewBox="0 0 24 24">
<title>turned_in</title>
<path d="M17.016 3c1.078 0 1.969 0.938 1.969 2.016v15.984l-6.984-3-6.984 3v-15.984c0-1.078 0.891-2.016 1.969-2.016h10.031z"></path>
</symbol>
<symbol id="icon-turned_in_not" viewBox="0 0 24 24">
<title>turned_in_not</title>
<path d="M17.016 18v-12.984h-10.031v12.984l5.016-2.203zM17.016 3c1.078 0 1.969 0.938 1.969 2.016v15.984l-6.984-3-6.984 3v-15.984c0-1.078 0.891-2.016 1.969-2.016h10.031z"></path>
</symbol>
<symbol id="icon-build" viewBox="0 0 24 24">
<title>build</title>
<path d="M22.688 18.984c0.422 0.281 0.422 0.984-0.094 1.406l-2.297 2.297c-0.422 0.422-0.984 0.422-1.406 0l-9.094-9.094c-2.297 0.891-4.969 0.422-6.891-1.5-2.016-2.016-2.531-5.016-1.313-7.406l4.406 4.313 3-3-4.313-4.313c2.391-1.078 5.391-0.703 7.406 1.313 1.922 1.922 2.391 4.594 1.5 6.891z"></path>
</symbol>
<symbol id="icon-cached" viewBox="0 0 24 24">
<title>cached</title>
<path d="M6 12h3l-3.984 3.984-4.031-3.984h3c0-4.406 3.609-8.016 8.016-8.016 1.547 0 3.047 0.469 4.266 1.266l-1.453 1.453c-0.844-0.469-1.781-0.703-2.813-0.703-3.328 0-6 2.672-6 6zM18.984 8.016l4.031 3.984h-3c0 4.406-3.609 8.016-8.016 8.016-1.547 0-3.047-0.469-4.266-1.266l1.453-1.453c0.844 0.469 1.781 0.703 2.813 0.703 3.328 0 6-2.672 6-6h-3z"></path>
</symbol>
<symbol id="icon-cancel" viewBox="0 0 24 24">
<title>cancel</title>
<path d="M17.016 15.609l-3.609-3.609 3.609-3.609-1.406-1.406-3.609 3.609-3.609-3.609-1.406 1.406 3.609 3.609-3.609 3.609 1.406 1.406 3.609-3.609 3.609 3.609zM12 2.016c5.531 0 9.984 4.453 9.984 9.984s-4.453 9.984-9.984 9.984-9.984-4.453-9.984-9.984 4.453-9.984 9.984-9.984z"></path>
</symbol>
<symbol id="icon-chat" viewBox="0 0 24 24">
<title>chat</title>
<path d="M18 8.016v-2.016h-12v2.016h12zM14.016 14.016v-2.016h-8.016v2.016h8.016zM6 9v2.016h12v-2.016h-12zM20.016 2.016c1.078 0 1.969 0.891 1.969 1.969v12c0 1.078-0.891 2.016-1.969 2.016h-14.016l-3.984 3.984v-18c0-1.078 0.891-1.969 1.969-1.969h16.031z"></path>
</symbol>
<symbol id="icon-chat_bubble" viewBox="0 0 24 24">
<title>chat_bubble</title>
<path d="M20.016 2.016c1.078 0 1.969 0.891 1.969 1.969v12c0 1.078-0.891 2.016-1.969 2.016h-14.016l-3.984 3.984v-18c0-1.078 0.891-1.969 1.969-1.969h16.031z"></path>
</symbol>
<symbol id="icon-chat_bubble_outline" viewBox="0 0 24 24">
<title>chat_bubble_outline</title>
<path d="M20.016 15.984v-12h-16.031v14.016l2.016-2.016h14.016zM20.016 2.016c1.078 0 1.969 0.891 1.969 1.969v12c0 1.078-0.891 2.016-1.969 2.016h-14.016l-3.984 3.984v-18c0-1.078 0.891-1.969 1.969-1.969h16.031z"></path>
</symbol>
<symbol id="icon-check" viewBox="0 0 24 24">
<title>check</title>
<path d="M9 16.172l10.594-10.594 1.406 1.406-12 12-5.578-5.578 1.406-1.406z"></path>
</symbol>
<symbol id="icon-check_circle" viewBox="0 0 24 24">
<title>check_circle</title>
<path d="M9.984 17.016l9-9-1.406-1.453-7.594 7.594-3.563-3.563-1.406 1.406zM12 2.016c5.531 0 9.984 4.453 9.984 9.984s-4.453 9.984-9.984 9.984-9.984-4.453-9.984-9.984 4.453-9.984 9.984-9.984z"></path>
</symbol>
<symbol id="icon-navigate_before" viewBox="0 0 24 24">
<title>navigate_before</title>
<path d="M15.422 7.406l-4.594 4.594 4.594 4.594-1.406 1.406-6-6 6-6z"></path>
</symbol>
<symbol id="icon-navigate_next" viewBox="0 0 24 24">
<title>navigate_next</title>
<path d="M9.984 6l6 6-6 6-1.406-1.406 4.594-4.594-4.594-4.594z"></path>
</symbol>
<symbol id="icon-close" viewBox="0 0 24 24">
<title>close</title>
<path d="M18.984 6.422l-5.578 5.578 5.578 5.578-1.406 1.406-5.578-5.578-5.578 5.578-1.406-1.406 5.578-5.578-5.578-5.578 1.406-1.406 5.578 5.578 5.578-5.578z"></path>
</symbol>
<symbol id="icon-code" viewBox="0 0 24 24">
<title>code</title>
<path d="M14.578 16.594l4.641-4.594-4.641-4.594 1.406-1.406 6 6-6 6zM9.422 16.594l-1.406 1.406-6-6 6-6 1.406 1.406-4.641 4.594z"></path>
</symbol>
<symbol id="icon-comment" viewBox="0 0 24 24">
<title>comment</title>
<path d="M18 8.016v-2.016h-12v2.016h12zM18 11.016v-2.016h-12v2.016h12zM18 14.016v-2.016h-12v2.016h12zM21.984 3.984v18l-3.984-3.984h-14.016c-1.078 0-1.969-0.938-1.969-2.016v-12c0-1.078 0.891-1.969 1.969-1.969h16.031c1.078 0 1.969 0.891 1.969 1.969z"></path>
</symbol>
<symbol id="icon-content_copy" viewBox="0 0 24 24">
<title>content_copy</title>
<path d="M18.984 21v-14.016h-10.969v14.016h10.969zM18.984 5.016c1.078 0 2.016 0.891 2.016 1.969v14.016c0 1.078-0.938 2.016-2.016 2.016h-10.969c-1.078 0-2.016-0.938-2.016-2.016v-14.016c0-1.078 0.938-1.969 2.016-1.969h10.969zM15.984 0.984v2.016h-12v14.016h-1.969v-14.016c0-1.078 0.891-2.016 1.969-2.016h12z"></path>
</symbol>
<symbol id="icon-mode_edit" viewBox="0 0 24 24">
<title>mode_edit</title>
<path d="M20.719 7.031l-1.828 1.828-3.75-3.75 1.828-1.828c0.375-0.375 1.031-0.375 1.406 0l2.344 2.344c0.375 0.375 0.375 1.031 0 1.406zM3 17.25l11.063-11.063 3.75 3.75-11.063 11.063h-3.75v-3.75z"></path>
</symbol>
<symbol id="icon-create_new_folder" viewBox="0 0 24 24">
<title>create_new_folder</title>
<path d="M18.984 14.016v-2.016h-3v-3h-1.969v3h-3v2.016h3v3h1.969v-3h3zM20.016 6c1.125 0 1.969 0.891 1.969 2.016v9.984c0 1.125-0.844 2.016-1.969 2.016h-16.031c-1.125 0-1.969-0.891-1.969-2.016v-12c0-1.125 0.844-2.016 1.969-2.016h6l2.016 2.016h8.016z"></path>
</symbol>
<symbol id="icon-date_range" viewBox="0 0 24 24">
<title>date_range</title>
<path d="M18.984 20.016v-11.016h-13.969v11.016h13.969zM18.984 3.984c1.078 0 2.016 0.938 2.016 2.016v14.016c0 1.078-0.938 1.969-2.016 1.969h-13.969c-1.125 0-2.016-0.891-2.016-1.969v-14.016c0-1.078 0.891-2.016 2.016-2.016h0.984v-1.969h2.016v1.969h7.969v-1.969h2.016v1.969h0.984zM17.016 11.016v1.969h-2.016v-1.969h2.016zM12.984 11.016v1.969h-1.969v-1.969h1.969zM9 11.016v1.969h-2.016v-1.969h2.016z"></path>
</symbol>
<symbol id="icon-delete" viewBox="0 0 24 24">
<title>delete</title>
<path d="M18.984 3.984v2.016h-13.969v-2.016h3.469l1.031-0.984h4.969l1.031 0.984h3.469zM6 18.984v-12h12v12c0 1.078-0.938 2.016-2.016 2.016h-7.969c-1.078 0-2.016-0.938-2.016-2.016z"></path>
</symbol>
<symbol id="icon-not_interested" viewBox="0 0 24 24">
<title>not_interested</title>
<path d="M18.328 16.922c1.078-1.359 1.688-3.094 1.688-4.922 0-4.406-3.609-8.016-8.016-8.016-1.828 0-3.563 0.609-4.922 1.688zM12 20.016c1.828 0 3.563-0.609 4.922-1.688l-11.25-11.25c-1.078 1.359-1.688 3.094-1.688 4.922 0 4.406 3.609 8.016 8.016 8.016zM12 2.016c5.531 0 9.984 4.453 9.984 9.984s-4.453 9.984-9.984 9.984-9.984-4.453-9.984-9.984 4.453-9.984 9.984-9.984z"></path>
</symbol>
<symbol id="icon-do_not_disturb_alt" viewBox="0 0 24 24">
<title>do_not_disturb_alt</title>
<path d="M12 20.016c4.406 0 8.016-3.609 8.016-8.016 0-1.781-0.656-3.516-1.734-4.922l-11.203 11.203c1.406 1.078 3.141 1.734 4.922 1.734zM3.984 12c0 1.781 0.656 3.516 1.734 4.922l11.203-11.203c-1.406-1.078-3.141-1.734-4.922-1.734-4.406 0-8.016 3.609-8.016 8.016zM12 2.016c5.484 0 9.984 4.5 9.984 9.984s-4.5 9.984-9.984 9.984-9.984-4.5-9.984-9.984 4.5-9.984 9.984-9.984z"></path>
</symbol>
<symbol id="icon-remove_circle" viewBox="0 0 24 24">
<title>remove_circle</title>
<path d="M17.016 12.984v-1.969h-10.031v1.969h10.031zM12 2.016c5.531 0 9.984 4.453 9.984 9.984s-4.453 9.984-9.984 9.984-9.984-4.453-9.984-9.984 4.453-9.984 9.984-9.984z"></path>
</symbol>
<symbol id="icon-done" viewBox="0 0 24 24">
<title>done</title>
<path d="M9 16.219l10.594-10.641 1.406 1.406-12 12-5.578-5.578 1.359-1.406z"></path>
</symbol>
<symbol id="icon-done_all" viewBox="0 0 24 24">
<title>done_all</title>
<path d="M0.422 13.406l1.406-1.406 5.578 5.578-1.406 1.406zM22.219 5.578l1.453 1.406-12 12-5.625-5.578 1.453-1.406 4.172 4.172zM18 6.984l-6.328 6.375-1.406-1.406 6.328-6.375z"></path>
</symbol>
<symbol id="icon-drafts" viewBox="0 0 24 24">
<title>drafts</title>
<path d="M12 12.984l8.25-5.156-8.25-4.828-8.25 4.828zM21.984 8.016v9.984c0 1.078-0.891 2.016-1.969 2.016h-16.031c-1.078 0-1.969-0.938-1.969-2.016v-9.984c0-0.703 0.375-1.406 0.938-1.734l9.047-5.297 9.047 5.297c0.563 0.328 0.938 1.031 0.938 1.734z"></path>
</symbol>
<symbol id="icon-markunread" viewBox="0 0 24 24">
<title>markunread</title>
<path d="M20.016 8.016v-2.016l-8.016 5.016-8.016-5.016v2.016l8.016 4.969zM20.016 3.984c1.078 0 1.969 0.938 1.969 2.016v12c0 1.078-0.891 2.016-1.969 2.016h-16.031c-1.078 0-1.969-0.938-1.969-2.016v-12c0-1.078 0.891-2.016 1.969-2.016h16.031z"></path>
</symbol>
<symbol id="icon-equalizer" viewBox="0 0 24 24">
<title>equalizer</title>
<path d="M15.984 9h4.031v11.016h-4.031v-11.016zM3.984 20.016v-8.016h4.031v8.016h-4.031zM9.984 20.016v-16.031h4.031v16.031h-4.031z"></path>
</symbol>
<symbol id="icon-error" viewBox="0 0 24 24">
<title>error</title>
<path d="M12.984 12.984v-6h-1.969v6h1.969zM12.984 17.016v-2.016h-1.969v2.016h1.969zM12 2.016c5.531 0 9.984 4.453 9.984 9.984s-4.453 9.984-9.984 9.984-9.984-4.453-9.984-9.984 4.453-9.984 9.984-9.984z"></path>
</symbol>
<symbol id="icon-error_outline" viewBox="0 0 24 24">
<title>error_outline</title>
<path d="M12 20.016c4.406 0 8.016-3.609 8.016-8.016s-3.609-8.016-8.016-8.016-8.016 3.609-8.016 8.016 3.609 8.016 8.016 8.016zM12 2.016c5.531 0 9.984 4.453 9.984 9.984s-4.453 9.984-9.984 9.984-9.984-4.453-9.984-9.984 4.453-9.984 9.984-9.984zM11.016 6.984h1.969v6h-1.969v-6zM11.016 15h1.969v2.016h-1.969v-2.016z"></path>
</symbol>
<symbol id="icon-event_note" viewBox="0 0 24 24">
<title>event_note</title>
<path d="M14.016 14.016v1.969h-7.031v-1.969h7.031zM18.984 18.984v-10.969h-13.969v10.969h13.969zM18.984 3c1.078 0 2.016 0.938 2.016 2.016v13.969c0 1.078-0.938 2.016-2.016 2.016h-13.969c-1.125 0-2.016-0.938-2.016-2.016v-13.969c0-1.078 0.891-2.016 2.016-2.016h0.984v-2.016h2.016v2.016h7.969v-2.016h2.016v2.016h0.984zM17.016 9.984v2.016h-10.031v-2.016h10.031z"></path>
</symbol>
<symbol id="icon-exit_to_app" viewBox="0 0 24 24">
<title>exit_to_app</title>
<path d="M18.984 3c1.078 0 2.016 0.938 2.016 2.016v13.969c0 1.078-0.938 2.016-2.016 2.016h-13.969c-1.125 0-2.016-0.938-2.016-2.016v-3.984h2.016v3.984h13.969v-13.969h-13.969v3.984h-2.016v-3.984c0-1.078 0.891-2.016 2.016-2.016h13.969zM10.078 15.609l2.578-2.625h-9.656v-1.969h9.656l-2.578-2.625 1.406-1.406 5.016 5.016-5.016 5.016z"></path>
</symbol>
<symbol id="icon-extension" viewBox="0 0 24 24">
<title>extension</title>
<path d="M20.484 11.016c1.359 0 2.531 1.125 2.531 2.484s-1.172 2.484-2.531 2.484h-1.5v4.031c0 1.078-0.891 1.969-1.969 1.969h-3.797v-1.5c0-1.5-1.219-2.672-2.719-2.672s-2.719 1.172-2.719 2.672v1.5h-3.797c-1.078 0-1.969-0.891-1.969-1.969v-3.797h1.5c1.5 0 2.672-1.219 2.672-2.719s-1.172-2.719-2.672-2.719h-1.5v-3.797c0-1.078 0.891-1.969 1.969-1.969h4.031v-1.5c0-1.359 1.125-2.531 2.484-2.531s2.484 1.172 2.484 2.531v1.5h4.031c1.078 0 1.969 0.891 1.969 1.969v4.031h1.5z"></path>
</symbol>
<symbol id="icon-favorite" viewBox="0 0 24 24">
<title>favorite</title>
<path d="M12 21.328l-1.453-1.313c-5.156-4.688-8.531-7.734-8.531-11.531 0-3.094 2.391-5.484 5.484-5.484 1.734 0 3.422 0.844 4.5 2.109 1.078-1.266 2.766-2.109 4.5-2.109 3.094 0 5.484 2.391 5.484 5.484 0 3.797-3.375 6.891-8.531 11.578z"></path>
</symbol>
<symbol id="icon-favorite_border" viewBox="0 0 24 24">
<title>favorite_border</title>
<path d="M12.094 18.563c4.781-4.313 7.922-7.172 7.922-10.078 0-2.016-1.5-3.469-3.516-3.469-1.547 0-3.047 0.984-3.563 2.344h-1.875c-0.516-1.359-2.016-2.344-3.563-2.344-2.016 0-3.516 1.453-3.516 3.469 0 2.906 3.141 5.766 7.922 10.078l0.094 0.094zM16.5 3c3.094 0 5.484 2.391 5.484 5.484 0 3.797-3.375 6.844-8.531 11.531l-1.453 1.313-1.453-1.266c-5.156-4.688-8.531-7.781-8.531-11.578 0-3.094 2.391-5.484 5.484-5.484 1.734 0 3.422 0.844 4.5 2.109 1.078-1.266 2.766-2.109 4.5-2.109z"></path>
</symbol>
<symbol id="icon-fingerprint" viewBox="0 0 24 24">
<title>fingerprint</title>
<path d="M14.906 21.984h-0.141c-1.594-0.422-2.625-1.031-3.703-2.109-1.406-1.406-2.156-3.234-2.156-5.203 0-1.641 1.359-2.953 3.047-2.953s3.094 1.313 3.094 2.953c0 1.078 0.891 1.922 2.063 1.922s2.109-0.844 2.109-1.922c0-3.75-3.281-6.844-7.266-6.844-2.859 0-5.438 1.594-6.609 4.031-0.375 0.797-0.563 1.781-0.563 2.813 0 0.797 0.047 2.016 0.656 3.609 0.215 0.644-0.725 0.859-0.938 0.328-0.469-1.313-0.75-2.578-0.75-3.938 0-1.219 0.234-2.297 0.703-3.234 1.313-2.813 4.266-4.641 7.5-4.641 4.547 0 8.25 3.563 8.25 7.875 0 1.641-1.406 2.906-3.094 2.906s-3.047-1.266-3.047-2.906c0-1.078-0.938-1.969-2.109-1.969s-2.063 0.891-2.063 1.969c0 1.688 0.656 3.281 1.875 4.5 0.938 0.938 1.875 1.453 3.281 1.828 0.281 0.047 0.375 0.328 0.328 0.609-0.047 0.234-0.281 0.375-0.469 0.375zM12.422 14.672c0 2.286 1.889 4.266 4.5 4.266 0.467 0 1.536-0.345 1.641 0.281 0.047 0.281-0.141 0.563-0.422 0.609-0.563 0.094-1.078 0.094-1.219 0.094-1.172 0-2.25-0.281-3.094-0.891-1.5-1.031-2.391-2.625-2.391-4.359 0-0.281 0.234-0.516 0.516-0.516s0.469 0.234 0.469 0.516zM9.75 21.797c-0.141 0-0.234-0.047-0.328-0.141-0.891-0.891-1.359-1.453-2.016-2.672-0.703-1.219-1.078-2.719-1.078-4.313 0-2.953 2.531-5.391 5.672-5.391s5.672 2.438 5.672 5.391c0 0.281-0.234 0.469-0.516 0.469s-0.516-0.188-0.516-0.469c0-2.438-2.063-4.406-4.641-4.406s-4.641 1.969-4.641 4.406c0 1.453 0.281 2.766 0.891 3.844 0.656 1.172 1.125 1.641 1.875 2.438 0.188 0.188 0.188 0.516 0 0.703-0.094 0.094-0.234 0.141-0.375 0.141zM3.516 9.703c-0.413 0-0.651-0.368-0.422-0.75 0.984-1.406 2.25-2.531 3.75-3.281 3.141-1.641 7.172-1.641 10.313 0 1.5 0.75 2.766 1.828 3.75 3.234 0.141 0.234 0.094 0.563-0.141 0.703s-0.563 0.094-0.703-0.141c-0.891-1.266-2.016-2.203-3.375-2.906-2.859-1.453-6.516-1.5-9.375 0-1.359 0.703-2.531 1.688-3.422 2.953-0.094 0.141-0.234 0.188-0.375 0.188zM17.813 4.453c-0.094 0-0.188 0-0.234-0.047-1.922-0.984-3.609-1.406-5.578-1.406s-3.891 0.469-5.578 1.406c-0.548 0.329-1.014-0.563-0.469-0.891 1.875-1.031 3.891-1.5 6.047-1.5 2.109 0 3.984 0.469 6.047 1.5 0.427 0.256 0.244 0.938-0.234 0.938z"></path>
</symbol>
<symbol id="icon-first_page" viewBox="0 0 24 24">
<title>first_page</title>
<path d="M6 6h2.016v12h-2.016v-12zM18.422 16.594l-1.406 1.406-6-6 6-6 1.406 1.406-4.594 4.594z"></path>
</symbol>
<symbol id="icon-folder" viewBox="0 0 24 24">
<title>folder</title>
<path d="M9.984 3.984l2.016 2.016h8.016c1.078 0 1.969 0.938 1.969 2.016v9.984c0 1.078-0.891 2.016-1.969 2.016h-16.031c-1.078 0-1.969-0.938-1.969-2.016v-12c0-1.078 0.891-2.016 1.969-2.016h6z"></path>
</symbol>
<symbol id="icon-folder_open" viewBox="0 0 24 24">
<title>folder_open</title>
<path d="M20.016 18v-9.984h-16.031v9.984h16.031zM20.016 6c1.078 0 1.969 0.938 1.969 2.016v9.984c0 1.078-0.891 2.016-1.969 2.016h-16.031c-1.078 0-1.969-0.938-1.969-2.016v-12c0-1.078 0.891-2.016 1.969-2.016h6l2.016 2.016h8.016z"></path>
</symbol>
<symbol id="icon-folder_shared" viewBox="0 0 24 24">
<title>folder_shared</title>
<path d="M18.984 17.016v-1.031c0-1.313-2.672-1.969-3.984-1.969s-3.984 0.656-3.984 1.969v1.031h7.969zM15 9c-1.078 0-2.016 0.938-2.016 2.016s0.938 1.969 2.016 1.969 2.016-0.891 2.016-1.969-0.938-2.016-2.016-2.016zM20.016 6c1.078 0 1.969 0.938 1.969 2.016v9.984c0 1.078-0.891 2.016-1.969 2.016h-16.031c-1.078 0-1.969-0.938-1.969-2.016v-12c0-1.078 0.891-2.016 1.969-2.016h6l2.016 2.016h8.016z"></path>
</symbol>
<symbol id="icon-folder_special" viewBox="0 0 24 24">
<title>folder_special</title>
<path d="M17.953 17.016l-0.797-3.328 2.578-2.25-3.375-0.281-1.359-3.141-1.359 3.141-3.375 0.281 2.578 2.25-0.797 3.328 2.953-1.734zM20.016 6c1.078 0 1.969 0.938 1.969 2.016v9.984c0 1.078-0.891 2.016-1.969 2.016h-16.031c-1.078 0-1.969-0.938-1.969-2.016v-12c0-1.078 0.891-2.016 1.969-2.016h6l2.016 2.016h8.016z"></path>
</symbol>
<symbol id="icon-format_quote" viewBox="0 0 24 24">
<title>format_quote</title>
<path d="M14.016 17.016l1.969-4.031h-3v-6h6v6l-1.969 4.031h-3zM6 17.016l2.016-4.031h-3v-6h6v6l-2.016 4.031h-3z"></path>
</symbol>
<symbol id="icon-question_answer" viewBox="0 0 24 24">
<title>question_answer</title>
<path d="M17.016 12c0 0.563-0.469 0.984-1.031 0.984h-9.984l-3.984 4.031v-14.016c0-0.563 0.422-0.984 0.984-0.984h12.984c0.563 0 1.031 0.422 1.031 0.984v9zM21 6c0.563 0 0.984 0.422 0.984 0.984v15l-3.984-3.984h-11.016c-0.563 0-0.984-0.422-0.984-0.984v-2.016h12.984v-9h2.016z"></path>
</symbol>
<symbol id="icon-star" viewBox="0 0 24 24">
<title>star</title>
<path d="M12 17.25l-6.188 3.75 1.641-7.031-5.438-4.734 7.172-0.609 2.813-6.609 2.813 6.609 7.172 0.609-5.438 4.734 1.641 7.031z"></path>
</symbol>
<symbol id="icon-people" viewBox="0 0 24 24">
<title>people</title>
<path d="M15.984 12.984c2.344 0 7.031 1.172 7.031 3.516v2.484h-6v-2.484c0-1.5-0.797-2.625-1.969-3.469 0.328-0.047 0.656-0.047 0.938-0.047zM8.016 12.984c2.344 0 6.984 1.172 6.984 3.516v2.484h-14.016v-2.484c0-2.344 4.688-3.516 7.031-3.516zM8.016 11.016c-1.641 0-3-1.359-3-3s1.359-3 3-3 2.953 1.359 2.953 3-1.313 3-2.953 3zM15.984 11.016c-1.641 0-3-1.359-3-3s1.359-3 3-3 3 1.359 3 3-1.359 3-3 3z"></path>
</symbol>
<symbol id="icon-group_add" viewBox="0 0 24 24">
<title>group_add</title>
<path d="M12.984 12.984c2.016 0 6 0.984 6 3v2.016h-12v-2.016c0-2.016 3.984-3 6-3zM19.641 13.172c2.016 0.328 4.359 1.266 4.359 2.813v2.016h-3v-2.016c0-1.172-0.516-2.063-1.359-2.813zM12.984 11.016c-1.641 0-3-1.359-3-3s1.359-3 3-3 3 1.359 3 3-1.359 3-3 3zM18 11.016c-0.328 0-0.609-0.047-0.891-0.141 0.563-0.797 0.891-1.781 0.891-2.859s-0.328-2.063-0.891-2.859c0.281-0.094 0.563-0.141 0.891-0.141 1.641 0 3 1.359 3 3s-1.359 3-3 3zM8.016 9.984v2.016h-3v3h-2.016v-3h-3v-2.016h3v-3h2.016v3h3z"></path>
</symbol>
<symbol id="icon-help" viewBox="0 0 24 24">
<title>help</title>
<path d="M15.047 11.25c0.563-0.563 0.938-1.359 0.938-2.25 0-2.203-1.781-3.984-3.984-3.984s-3.984 1.781-3.984 3.984h1.969c0-1.078 0.938-2.016 2.016-2.016s2.016 0.938 2.016 2.016c0 0.563-0.234 1.031-0.609 1.406l-1.219 1.266c-0.703 0.75-1.172 1.734-1.172 2.813v0.516h1.969c0-1.5 0.469-2.063 1.172-2.813zM12.984 18.984v-1.969h-1.969v1.969h1.969zM12 2.016c5.531 0 9.984 4.453 9.984 9.984s-4.453 9.984-9.984 9.984-9.984-4.453-9.984-9.984 4.453-9.984 9.984-9.984z"></path>
</symbol>
<symbol id="icon-help_outline" viewBox="0 0 24 24">
<title>help_outline</title>
<path d="M12 6c2.203 0 3.984 1.781 3.984 3.984 0 2.484-3 2.766-3 5.016h-1.969c0-3.234 3-3 3-5.016 0-1.078-0.938-1.969-2.016-1.969s-2.016 0.891-2.016 1.969h-1.969c0-2.203 1.781-3.984 3.984-3.984zM12 20.016c4.406 0 8.016-3.609 8.016-8.016s-3.609-8.016-8.016-8.016-8.016 3.609-8.016 8.016 3.609 8.016 8.016 8.016zM12 2.016c5.531 0 9.984 4.453 9.984 9.984s-4.453 9.984-9.984 9.984-9.984-4.453-9.984-9.984 4.453-9.984 9.984-9.984zM11.016 18v-2.016h1.969v2.016h-1.969z"></path>
</symbol>
<symbol id="icon-highlight_off" viewBox="0 0 24 24">
<title>highlight_off</title>
<path d="M12 20.016c4.406 0 8.016-3.609 8.016-8.016s-3.609-8.016-8.016-8.016-8.016 3.609-8.016 8.016 3.609 8.016 8.016 8.016zM12 2.016c5.531 0 9.984 4.453 9.984 9.984s-4.453 9.984-9.984 9.984-9.984-4.453-9.984-9.984 4.453-9.984 9.984-9.984zM14.578 8.016l1.406 1.406-2.578 2.578 2.578 2.578-1.406 1.406-2.578-2.578-2.578 2.578-1.406-1.406 2.578-2.578-2.578-2.578 1.406-1.406 2.578 2.578z"></path>
</symbol>
<symbol id="icon-restore" viewBox="0 0 24 24">
<title>restore</title>
<path d="M12 8.016h1.5v4.219l3.516 2.109-0.75 1.219-4.266-2.578v-4.969zM12.984 3c4.969 0 9 4.031 9 9s-4.031 9-9 9c-2.484 0-4.688-0.984-6.328-2.625l1.406-1.453c1.266 1.266 3 2.063 4.922 2.063 3.891 0 7.031-3.094 7.031-6.984s-3.141-6.984-7.031-6.984-6.984 3.094-6.984 6.984h3l-4.031 4.031-0.094-0.141-3.891-3.891h3c0-4.969 4.031-9 9-9z"></path>
</symbol>
<symbol id="icon-home" viewBox="0 0 24 24">
<title>home</title>
<path d="M9.984 20.016h-4.969v-8.016h-3l9.984-9 9.984 9h-3v8.016h-4.969v-6h-4.031v6z"></path>
</symbol>
<symbol id="icon-info" viewBox="0 0 24 24">
<title>info</title>
<path d="M12.984 9v-2.016h-1.969v2.016h1.969zM12.984 17.016v-6h-1.969v6h1.969zM12 2.016c5.531 0 9.984 4.453 9.984 9.984s-4.453 9.984-9.984 9.984-9.984-4.453-9.984-9.984 4.453-9.984 9.984-9.984z"></path>
</symbol>
<symbol id="icon-info_outline" viewBox="0 0 24 24">
<title>info_outline</title>
<path d="M11.016 9v-2.016h1.969v2.016h-1.969zM12 20.016c4.406 0 8.016-3.609 8.016-8.016s-3.609-8.016-8.016-8.016-8.016 3.609-8.016 8.016 3.609 8.016 8.016 8.016zM12 2.016c5.531 0 9.984 4.453 9.984 9.984s-4.453 9.984-9.984 9.984-9.984-4.453-9.984-9.984 4.453-9.984 9.984-9.984zM11.016 17.016v-6h1.969v6h-1.969z"></path>
</symbol>
<symbol id="icon-input" viewBox="0 0 24 24">
<title>input</title>
<path d="M11.016 15.984v-3h-10.031v-1.969h10.031v-3l3.984 3.984zM21 3c1.078 0 2.016 0.891 2.016 2.016v14.016c0 1.078-0.938 1.969-2.016 1.969h-18c-1.078 0-2.016-0.891-2.016-1.969v-4.031h2.016v4.031h18v-14.063h-18v4.031h-2.016v-3.984c0-1.078 0.938-2.016 2.016-2.016h18z"></path>
</symbol>
<symbol id="icon-insert_comment" viewBox="0 0 24 24">
<title>insert_comment</title>
<path d="M18 8.016v-2.016h-12v2.016h12zM18 11.016v-2.016h-12v2.016h12zM18 14.016v-2.016h-12v2.016h12zM20.016 2.016c1.078 0 1.969 0.891 1.969 1.969v18l-3.984-3.984h-14.016c-1.078 0-1.969-0.938-1.969-2.016v-12c0-1.078 0.891-1.969 1.969-1.969h16.031z"></path>
</symbol>
<symbol id="icon-insert_drive_file" viewBox="0 0 24 24">
<title>insert_drive_file</title>
<path d="M12.984 9h5.531l-5.531-5.484v5.484zM6 2.016h8.016l6 6v12c0 1.078-0.938 1.969-2.016 1.969h-12c-1.078 0-2.016-0.891-2.016-1.969l0.047-16.031c0-1.078 0.891-1.969 1.969-1.969z"></path>
</symbol>
<symbol id="icon-tag_faces" viewBox="0 0 24 24">
<title>tag_faces</title>
<path d="M12 17.484c-2.344 0-4.313-1.406-5.109-3.469h10.219c-0.797 2.063-2.766 3.469-5.109 3.469zM8.484 11.016c-0.844 0-1.5-0.656-1.5-1.5s0.656-1.5 1.5-1.5 1.5 0.656 1.5 1.5-0.656 1.5-1.5 1.5zM15.516 11.016c-0.844 0-1.5-0.656-1.5-1.5s0.656-1.5 1.5-1.5 1.5 0.656 1.5 1.5-0.656 1.5-1.5 1.5zM12 20.016c4.406 0 8.016-3.609 8.016-8.016s-3.609-8.016-8.016-8.016-8.016 3.609-8.016 8.016 3.609 8.016 8.016 8.016zM12 2.016c5.531 0 9.984 4.453 9.984 9.984s-4.453 9.984-9.984 9.984-9.984-4.453-9.984-9.984 4.453-9.984 9.984-9.984z"></path>
</symbol>
<symbol id="icon-link" viewBox="0 0 24 24">
<title>link</title>
<path d="M17.016 6.984c2.766 0 4.969 2.25 4.969 5.016s-2.203 5.016-4.969 5.016h-4.031v-1.922h4.031c1.688 0 3.094-1.406 3.094-3.094s-1.406-3.094-3.094-3.094h-4.031v-1.922h4.031zM8.016 12.984v-1.969h7.969v1.969h-7.969zM3.891 12c0 1.688 1.406 3.094 3.094 3.094h4.031v1.922h-4.031c-2.766 0-4.969-2.25-4.969-5.016s2.203-5.016 4.969-5.016h4.031v1.922h-4.031c-1.688 0-3.094 1.406-3.094 3.094z"></path>
</symbol>
<symbol id="icon-keyboard_arrow_down" viewBox="0 0 24 24">
<title>keyboard_arrow_down</title>
<path d="M7.406 7.828l4.594 4.594 4.594-4.594 1.406 1.406-6 6-6-6z"></path>
</symbol>
<symbol id="icon-keyboard_arrow_left" viewBox="0 0 24 24">
<title>keyboard_arrow_left</title>
<path d="M15.422 16.078l-1.406 1.406-6-6 6-6 1.406 1.406-4.594 4.594z"></path>
</symbol>
<symbol id="icon-keyboard_arrow_right" viewBox="0 0 24 24">
<title>keyboard_arrow_right</title>
<path d="M8.578 16.359l4.594-4.594-4.594-4.594 1.406-1.406 6 6-6 6z"></path>
</symbol>
<symbol id="icon-keyboard_arrow_up" viewBox="0 0 24 24">
<title>keyboard_arrow_up</title>
<path d="M7.406 15.422l-1.406-1.406 6-6 6 6-1.406 1.406-4.594-4.594z"></path>
</symbol>
<symbol id="icon-label" viewBox="0 0 24 24">
<title>label</title>
<path d="M17.625 5.859l4.359 6.141-4.359 6.141c-0.375 0.516-0.984 0.844-1.641 0.844h-10.969c-1.078 0-2.016-0.891-2.016-1.969v-10.031c0-1.078 0.938-1.969 2.016-1.969h10.969c0.656 0 1.266 0.328 1.641 0.844z"></path>
</symbol>
<symbol id="icon-label_outline" viewBox="0 0 24 24">
<title>label_outline</title>
<path d="M15.984 17.016l3.563-5.016-3.563-5.016h-10.969v10.031h10.969zM17.625 5.859l4.359 6.141-4.359 6.141c-0.375 0.516-0.984 0.844-1.641 0.844h-10.969c-1.078 0-2.016-0.891-2.016-1.969v-10.031c0-1.078 0.938-1.969 2.016-1.969h10.969c0.656 0 1.266 0.328 1.641 0.844z"></path>
</symbol>
<symbol id="icon-last_page" viewBox="0 0 24 24">
<title>last_page</title>
<path d="M15.984 6h2.016v12h-2.016v-12zM5.578 7.406l1.406-1.406 6 6-6 6-1.406-1.406 4.594-4.594z"></path>
</symbol>
<symbol id="icon-lightbulb_outline" viewBox="0 0 24 24">
<title>lightbulb_outline</title>
<path d="M14.859 13.078c1.359-0.938 2.156-2.438 2.156-4.078 0-2.766-2.25-5.016-5.016-5.016s-5.016 2.25-5.016 5.016c0 1.641 0.797 3.141 2.156 4.078l0.844 0.609v2.297h4.031v-2.297zM12 2.016c3.844 0 6.984 3.141 6.984 6.984 0 2.391-1.172 4.453-3 5.719v2.297c0 0.563-0.422 0.984-0.984 0.984h-6c-0.563 0-0.984-0.422-0.984-0.984v-2.297c-1.828-1.266-3-3.328-3-5.719 0-3.844 3.141-6.984 6.984-6.984zM9 21v-0.984h6v0.984c0 0.563-0.422 0.984-0.984 0.984h-4.031c-0.563 0-0.984-0.422-0.984-0.984z"></path>
</symbol>
<symbol id="icon-list" viewBox="0 0 24 24">
<title>list</title>
<path d="M6.984 6.984h14.016v2.016h-14.016v-2.016zM6.984 17.016v-2.016h14.016v2.016h-14.016zM6.984 12.984v-1.969h14.016v1.969h-14.016zM3 9v-2.016h2.016v2.016h-2.016zM3 17.016v-2.016h2.016v2.016h-2.016zM3 12.984v-1.969h2.016v1.969h-2.016z"></path>
</symbol>
<symbol id="icon-local_offer" viewBox="0 0 24 24">
<title>local_offer</title>
<path d="M5.484 6.984c0.844 0 1.5-0.656 1.5-1.5s-0.656-1.5-1.5-1.5-1.5 0.656-1.5 1.5 0.656 1.5 1.5 1.5zM21.422 11.578c0.375 0.375 0.563 0.844 0.563 1.406s-0.188 1.031-0.563 1.406l-7.031 7.031c-0.375 0.375-0.844 0.563-1.406 0.563s-1.031-0.188-1.406-0.563l-9-9c-0.375-0.375-0.563-0.844-0.563-1.406v-7.031c0-1.078 0.891-1.969 1.969-1.969h7.031c0.563 0 1.031 0.188 1.406 0.563z"></path>
</symbol>
<symbol id="icon-lock_open" viewBox="0 0 24 24">
<title>lock_open</title>
<path d="M18 20.016v-10.031h-12v10.031h12zM18 8.016c1.078 0 2.016 0.891 2.016 1.969v10.031c0 1.078-0.938 1.969-2.016 1.969h-12c-1.078 0-2.016-0.891-2.016-1.969v-10.031c0-1.078 0.938-1.969 2.016-1.969h9.094v-2.016c0-1.688-1.406-3.094-3.094-3.094s-3.094 1.406-3.094 3.094h-1.922c0-2.766 2.25-5.016 5.016-5.016s5.016 2.25 5.016 5.016v2.016h0.984zM12 17.016c-1.078 0-2.016-0.938-2.016-2.016s0.938-2.016 2.016-2.016 2.016 0.938 2.016 2.016-0.938 2.016-2.016 2.016z"></path>
</symbol>
<symbol id="icon-lock_outline" viewBox="0 0 24 24">
<title>lock_outline</title>
<path d="M18 20.016v-10.031h-12v10.031h12zM8.906 6v2.016h6.188v-2.016c0-1.688-1.406-3.094-3.094-3.094s-3.094 1.406-3.094 3.094zM18 8.016c1.078 0 2.016 0.891 2.016 1.969v10.031c0 1.078-0.938 1.969-2.016 1.969h-12c-1.078 0-2.016-0.891-2.016-1.969v-10.031c0-1.078 0.938-1.969 2.016-1.969h0.984v-2.016c0-2.766 2.25-5.016 5.016-5.016s5.016 2.25 5.016 5.016v2.016h0.984zM12 17.016c-1.078 0-2.016-0.938-2.016-2.016s0.938-2.016 2.016-2.016 2.016 0.938 2.016 2.016-0.938 2.016-2.016 2.016z"></path>
</symbol>
<symbol id="icon-sync" viewBox="0 0 24 24">
<title>sync</title>
<path d="M12 18v-3l3.984 3.984-3.984 4.031v-3c-4.406 0-8.016-3.609-8.016-8.016 0-1.547 0.469-3.047 1.266-4.266l1.453 1.453c-0.469 0.844-0.703 1.781-0.703 2.813 0 3.328 2.672 6 6 6zM12 3.984c4.406 0 8.016 3.609 8.016 8.016 0 1.547-0.469 3.047-1.266 4.266l-1.453-1.453c0.469-0.844 0.703-1.781 0.703-2.813 0-3.328-2.672-6-6-6v3l-3.984-3.984 3.984-4.031v3z"></path>
</symbol>
<symbol id="icon-more_horiz" viewBox="0 0 24 24">
<title>more_horiz</title>
<path d="M12 9.984c1.078 0 2.016 0.938 2.016 2.016s-0.938 2.016-2.016 2.016-2.016-0.938-2.016-2.016 0.938-2.016 2.016-2.016zM18 9.984c1.078 0 2.016 0.938 2.016 2.016s-0.938 2.016-2.016 2.016-2.016-0.938-2.016-2.016 0.938-2.016 2.016-2.016zM6 9.984c1.078 0 2.016 0.938 2.016 2.016s-0.938 2.016-2.016 2.016-2.016-0.938-2.016-2.016 0.938-2.016 2.016-2.016z"></path>
</symbol>
<symbol id="icon-more_vert" viewBox="0 0 24 24">
<title>more_vert</title>
<path d="M12 15.984c1.078 0 2.016 0.938 2.016 2.016s-0.938 2.016-2.016 2.016-2.016-0.938-2.016-2.016 0.938-2.016 2.016-2.016zM12 9.984c1.078 0 2.016 0.938 2.016 2.016s-0.938 2.016-2.016 2.016-2.016-0.938-2.016-2.016 0.938-2.016 2.016-2.016zM12 8.016c-1.078 0-2.016-0.938-2.016-2.016s0.938-2.016 2.016-2.016 2.016 0.938 2.016 2.016-0.938 2.016-2.016 2.016z"></path>
</symbol>
<symbol id="icon-new_releases" viewBox="0 0 24 24">
<title>new_releases</title>
<path d="M12.984 12.984v-6h-1.969v6h1.969zM12.984 17.016v-2.016h-1.969v2.016h1.969zM23.016 12l-2.438 2.766 0.328 3.703-3.609 0.797-1.875 3.188-3.422-1.453-3.422 1.453-1.875-3.141-3.609-0.844 0.328-3.703-2.438-2.766 2.438-2.813-0.328-3.656 3.609-0.797 1.875-3.188 3.422 1.453 3.422-1.453 1.875 3.188 3.609 0.797-0.328 3.703z"></path>
</symbol>
<symbol id="icon-person" viewBox="0 0 24 24">
<title>person</title>
<path d="M12 14.016c2.672 0 8.016 1.313 8.016 3.984v2.016h-16.031v-2.016c0-2.672 5.344-3.984 8.016-3.984zM12 12c-2.203 0-3.984-1.781-3.984-3.984s1.781-4.031 3.984-4.031 3.984 1.828 3.984 4.031-1.781 3.984-3.984 3.984z"></path>
</symbol>
<symbol id="icon-person_add" viewBox="0 0 24 24">
<title>person_add</title>
<path d="M15 14.016c2.672 0 8.016 1.313 8.016 3.984v2.016h-16.031v-2.016c0-2.672 5.344-3.984 8.016-3.984zM6 9.984h3v2.016h-3v3h-2.016v-3h-3v-2.016h3v-3h2.016v3zM15 12c-2.203 0-3.984-1.781-3.984-3.984s1.781-4.031 3.984-4.031 3.984 1.828 3.984 4.031-1.781 3.984-3.984 3.984z"></path>
</symbol>
<symbol id="icon-power_settings_new" viewBox="0 0 24 24">
<title>power_settings_new</title>
<path d="M17.813 5.156c1.922 1.641 3.188 4.125 3.188 6.844 0 4.969-4.031 9-9 9s-9-4.031-9-9c0-2.719 1.266-5.203 3.188-6.844l1.406 1.406c-1.547 1.266-2.578 3.234-2.578 5.438 0 3.891 3.094 6.984 6.984 6.984s6.984-3.094 6.984-6.984c0-2.203-0.984-4.125-2.578-5.391zM12.984 3v9.984h-1.969v-9.984h1.969z"></path>
</symbol>
<symbol id="icon-public" viewBox="0 0 24 24">
<title>public</title>
<path d="M17.906 17.391c1.313-1.406 2.109-3.328 2.109-5.391 0-3.328-2.063-6.234-5.016-7.406v0.422c0 1.078-0.938 1.969-2.016 1.969h-1.969v2.016c0 0.563-0.469 0.984-1.031 0.984h-1.969v2.016h6c0.563 0 0.984 0.422 0.984 0.984v3h0.984c0.891 0 1.641 0.609 1.922 1.406zM11.016 19.922v-1.922c-1.078 0-2.016-0.938-2.016-2.016v-0.984l-4.781-4.781c-0.141 0.563-0.234 1.172-0.234 1.781 0 4.078 3.094 7.453 7.031 7.922zM12 2.016c5.531 0 9.984 4.453 9.984 9.984s-4.453 9.984-9.984 9.984-9.984-4.453-9.984-9.984 4.453-9.984 9.984-9.984z"></path>
</symbol>
<symbol id="icon-refresh" viewBox="0 0 24 24">
<title>refresh</title>
<path d="M17.672 6.328l2.344-2.344v7.031h-7.031l3.234-3.234c-1.078-1.078-2.578-1.781-4.219-1.781-3.328 0-6 2.672-6 6s2.672 6 6 6c2.625 0 4.875-1.641 5.672-3.984h2.063c-0.891 3.469-3.984 6-7.734 6-4.406 0-7.969-3.609-7.969-8.016s3.563-8.016 7.969-8.016c2.203 0 4.219 0.891 5.672 2.344z"></path>
</symbol>
<symbol id="icon-visibility" viewBox="0 0 24 24">
<title>visibility</title>
<path d="M12 9c1.641 0 3 1.359 3 3s-1.359 3-3 3-3-1.359-3-3 1.359-3 3-3zM12 17.016c2.766 0 5.016-2.25 5.016-5.016s-2.25-5.016-5.016-5.016-5.016 2.25-5.016 5.016 2.25 5.016 5.016 5.016zM12 4.5c5.016 0 9.281 3.094 11.016 7.5-1.734 4.406-6 7.5-11.016 7.5s-9.281-3.094-11.016-7.5c1.734-4.406 6-7.5 11.016-7.5z"></path>
</symbol>
<symbol id="icon-reorder" viewBox="0 0 24 24">
<title>reorder</title>
<path d="M3 5.016h18v1.969h-18v-1.969zM3 11.016v-2.016h18v2.016h-18zM3 18.984v-1.969h18v1.969h-18zM3 15v-2.016h18v2.016h-18z"></path>
</symbol>
<symbol id="icon-send" viewBox="0 0 24 24">
<title>send</title>
<path d="M2.016 21v-6.984l15-2.016-15-2.016v-6.984l21 9z"></path>
</symbol>
<symbol id="icon-settings" viewBox="0 0 24 24">
<title>settings</title>
<path d="M12 15.516c1.922 0 3.516-1.594 3.516-3.516s-1.594-3.516-3.516-3.516-3.516 1.594-3.516 3.516 1.594 3.516 3.516 3.516zM19.453 12.984l2.109 1.641c0.188 0.141 0.234 0.422 0.094 0.656l-2.016 3.469c-0.141 0.234-0.375 0.281-0.609 0.188l-2.484-0.984c-0.516 0.375-1.078 0.75-1.688 0.984l-0.375 2.625c-0.047 0.234-0.234 0.422-0.469 0.422h-4.031c-0.234 0-0.422-0.188-0.469-0.422l-0.375-2.625c-0.609-0.234-1.172-0.563-1.688-0.984l-2.484 0.984c-0.234 0.094-0.469 0.047-0.609-0.188l-2.016-3.469c-0.141-0.234-0.094-0.516 0.094-0.656l2.109-1.641c-0.047-0.328-0.047-0.656-0.047-0.984s0-0.656 0.047-0.984l-2.109-1.641c-0.188-0.141-0.234-0.422-0.094-0.656l2.016-3.469c0.141-0.234 0.375-0.281 0.609-0.188l2.484 0.984c0.516-0.375 1.078-0.75 1.688-0.984l0.375-2.625c0.047-0.234 0.234-0.422 0.469-0.422h4.031c0.234 0 0.422 0.188 0.469 0.422l0.375 2.625c0.609 0.234 1.172 0.563 1.688 0.984l2.484-0.984c0.234-0.094 0.469-0.047 0.609 0.188l2.016 3.469c0.141 0.234 0.094 0.516-0.094 0.656l-2.109 1.641c0.047 0.328 0.047 0.656 0.047 0.984s0 0.656-0.047 0.984z"></path>
</symbol>
<symbol id="icon-share" viewBox="0 0 24 24">
<title>share</title>
<path d="M18 16.078c1.594 0 2.906 1.313 2.906 2.906s-1.313 2.953-2.906 2.953-2.906-1.359-2.906-2.953c0-0.234 0-0.469 0.047-0.656l-7.078-4.125c-0.563 0.516-1.266 0.797-2.063 0.797-1.641 0-3-1.359-3-3s1.359-3 3-3c0.797 0 1.5 0.281 2.063 0.797l7.031-4.078c-0.047-0.234-0.094-0.469-0.094-0.703 0-1.641 1.359-3 3-3s3 1.359 3 3-1.359 3-3 3c-0.797 0-1.5-0.328-2.063-0.844l-7.031 4.125c0.047 0.234 0.094 0.469 0.094 0.703s-0.047 0.469-0.094 0.703l7.125 4.125c0.516-0.469 1.219-0.75 1.969-0.75z"></path>
</symbol>
<symbol id="icon-textsms" viewBox="0 0 24 24">
<title>textsms</title>
<path d="M17.016 11.016v-2.016h-2.016v2.016h2.016zM12.984 11.016v-2.016h-1.969v2.016h1.969zM9 11.016v-2.016h-2.016v2.016h2.016zM20.016 2.016c1.078 0 1.969 0.891 1.969 1.969v12c0 1.078-0.891 2.016-1.969 2.016h-14.016l-3.984 3.984v-18c0-1.078 0.891-1.969 1.969-1.969h16.031z"></path>
</symbol>
<symbol id="icon-star_border" viewBox="0 0 24 24">
<title>star_border</title>
<path d="M12 15.422l3.75 2.25-0.984-4.266 3.328-2.906-4.406-0.375-1.688-4.031-1.688 4.031-4.406 0.375 3.328 2.906-0.984 4.266zM21.984 9.234l-5.438 4.734 1.641 7.031-6.188-3.75-6.188 3.75 1.641-7.031-5.438-4.734 7.172-0.609 2.813-6.609 2.813 6.609z"></path>
</symbol>
<symbol id="icon-star_half" viewBox="0 0 24 24">
<title>star_half</title>
<path d="M12 15.422l3.75 2.25-0.984-4.266 3.328-2.906-4.406-0.375-1.688-4.031v9.328zM21.984 9.234l-5.438 4.734 1.641 7.031-6.188-3.75-6.188 3.75 1.641-7.031-5.438-4.734 7.172-0.609 2.813-6.609 2.813 6.609z"></path>
</symbol>
<symbol id="icon-subject" viewBox="0 0 24 24">
<title>subject</title>
<path d="M3.984 5.016h16.031v1.969h-16.031v-1.969zM3.984 15v-2.016h16.031v2.016h-16.031zM20.016 9v2.016h-16.031v-2.016h16.031zM14.016 17.016v1.969h-10.031v-1.969h10.031z"></path>
</symbol>
<symbol id="icon-thumb_down" viewBox="0 0 24 24">
<title>thumb_down</title>
<path d="M18.984 3h4.031v12h-4.031v-12zM15 3c1.078 0 2.016 0.938 2.016 2.016v9.984c0 0.563-0.234 1.031-0.609 1.406l-6.563 6.609-1.078-1.078c-0.281-0.281-0.422-0.609-0.422-1.031v-0.328l0.984-4.594h-6.328c-1.078 0-2.016-0.891-2.016-1.969l0.047-0.094h-0.047v-1.922c0-0.281 0.047-0.516 0.141-0.75l3.047-7.031c0.281-0.703 0.984-1.219 1.828-1.219h9z"></path>
</symbol>
<symbol id="icon-thumb_up" viewBox="0 0 24 24">
<title>thumb_up</title>
<path d="M23.016 9.984l-0.047 0.094h0.047v1.922c0 0.281-0.047 0.516-0.141 0.75l-3.047 7.031c-0.281 0.703-0.984 1.219-1.828 1.219h-9c-1.078 0-2.016-0.938-2.016-2.016v-9.984c0-0.563 0.234-1.031 0.609-1.406l6.563-6.609 1.078 1.078c0.281 0.281 0.422 0.609 0.422 1.031v0.328l-0.984 4.594h6.328c1.078 0 2.016 0.891 2.016 1.969zM0.984 21v-12h4.031v12h-4.031z"></path>
</symbol>
<symbol id="icon-thumbs_up_down" viewBox="0 0 24 24">
<title>thumbs_up_down</title>
<path d="M22.5 9.984c0.844 0 1.5 0.656 1.5 1.5v6.516c0 0.422-0.141 0.797-0.422 1.078l-4.969 4.922-0.797-0.797c-0.188-0.188-0.328-0.469-0.328-0.797 0.232-1.143 0.469-2.281 0.703-3.422h-5.203c-0.563 0-0.984-0.422-0.984-0.984v-1.266c0-0.188 0.047-0.328 0.094-0.516l2.297-5.297c0.234-0.516 0.75-0.938 1.359-0.938h6.75zM12 6v1.266c0 0.188-0.047 0.328-0.094 0.516l-2.297 5.297c-0.234 0.516-0.75 0.938-1.359 0.938h-6.75c-0.844 0-1.5-0.656-1.5-1.5v-6.516c0-0.422 0.141-0.797 0.422-1.078l4.969-4.922 0.797 0.797c0.188 0.188 0.328 0.469 0.328 0.797-0.232 1.143-0.469 2.281-0.703 3.422h5.203c0.563 0 0.984 0.422 0.984 0.984z"></path>
</symbol>
<symbol id="icon-timeline" viewBox="0 0 24 24">
<title>timeline</title>
<path d="M23.016 8.016c0 1.078-0.938 1.969-2.016 1.969-0.188 0-0.375 0-0.516-0.047l-3.563 3.563c0.047 0.141 0.094 0.328 0.094 0.516 0 1.078-0.938 1.969-2.016 1.969s-2.016-0.891-2.016-1.969c0-0.188 0.047-0.375 0.094-0.516l-2.578-2.578c-0.141 0.047-0.328 0.094-0.516 0.094s-0.375-0.047-0.516-0.094l-4.547 4.547c0.047 0.141 0.094 0.328 0.094 0.516 0 1.078-0.938 2.016-2.016 2.016s-2.016-0.938-2.016-2.016 0.938-1.969 2.016-1.969c0.188 0 0.375 0 0.516 0.047l4.547-4.547c-0.047-0.141-0.047-0.328-0.047-0.516 0-1.078 0.891-2.016 1.969-2.016s2.016 0.938 2.016 2.016c0 0.188 0 0.375-0.047 0.516l2.531 2.531c0.141-0.047 0.328-0.047 0.516-0.047s0.375 0 0.516 0.047l3.563-3.516c-0.047-0.141-0.094-0.328-0.094-0.516 0-1.078 0.938-2.016 2.016-2.016s2.016 0.938 2.016 2.016z"></path>
</symbol>
<symbol id="icon-tune" viewBox="0 0 24 24">
<title>tune</title>
<path d="M15 9v-6h2.016v2.016h3.984v1.969h-3.984v2.016h-2.016zM21 12.984h-9.984v-1.969h9.984v1.969zM6.984 9h2.016v6h-2.016v-2.016h-3.984v-1.969h3.984v-2.016zM12.984 21h-1.969v-6h1.969v2.016h8.016v1.969h-8.016v2.016zM3 5.016h9.984v1.969h-9.984v-1.969zM3 17.016h6v1.969h-6v-1.969z"></path>
</symbol>
<symbol id="icon-update" viewBox="0 0 24 24">
<title>update</title>
<path d="M12.516 8.016v4.219l3.469 2.109-0.703 1.219-4.266-2.578v-4.969h1.5zM21 10.125h-6.797l2.766-2.813c-2.719-2.719-7.172-2.813-9.891-0.094s-2.719 7.031 0 9.75 7.172 2.719 9.891 0c1.359-1.359 2.016-2.906 2.016-4.875h2.016c0 1.969-0.844 4.547-2.625 6.281-3.516 3.469-9.234 3.469-12.75 0s-3.516-9.094 0-12.563 9.141-3.469 12.656 0l2.719-2.813v7.125z"></path>
</symbol>
<symbol id="icon-visibility_off" viewBox="0 0 24 24">
<title>visibility_off</title>
<path d="M11.859 9h0.141c1.641 0 3 1.359 3 3v0.188zM7.547 9.797c-0.328 0.656-0.563 1.406-0.563 2.203 0 2.766 2.25 5.016 5.016 5.016 0.797 0 1.547-0.234 2.203-0.563l-1.547-1.547c-0.188 0.047-0.422 0.094-0.656 0.094-1.641 0-3-1.359-3-3 0-0.234 0.047-0.469 0.094-0.656zM2.016 4.266l1.266-1.266 17.719 17.719-1.266 1.266c-1.124-1.11-2.256-2.213-3.375-3.328-1.359 0.563-2.813 0.844-4.359 0.844-5.016 0-9.281-3.094-11.016-7.5 0.797-1.969 2.109-3.656 3.75-4.969-0.914-0.914-1.812-1.844-2.719-2.766zM12 6.984c-0.656 0-1.266 0.141-1.828 0.375l-2.156-2.156c1.219-0.469 2.578-0.703 3.984-0.703 5.016 0 9.234 3.094 10.969 7.5-0.75 1.875-1.922 3.469-3.422 4.734l-2.906-2.906c0.234-0.563 0.375-1.172 0.375-1.828 0-2.766-2.25-5.016-5.016-5.016z"></path>
</symbol>
</defs>
</svg>
