<svg aria-hidden="true" style="position: absolute; width: 0; height: 0; overflow: hidden;" version="1.1" xmlns="http://www.w3.org/2000/svg" xmlns:xlink="http://www.w3.org/1999/xlink">
<defs>
<symbol id="icon-bar-chart" viewBox="0 0 10 10">
<title>bar-chart</title>
<path fill="#84bae7" style="fill: var(--color1, #84bae7)" d="M6.5 1v8h2.5v-8h-2.5zM8.5 8.5h-1.5v-7h1.5v7z"></path>
<path fill="#84bae7" style="fill: var(--color1, #84bae7)" d="M1 3.5v5.5h2.5v-6h-2.5v0.5zM3 3.5v5h-1.5v-5h1.5z"></path>
<path fill="#84bae7" style="fill: var(--color1, #84bae7)" d="M4 5.5v3.5h2v-4h-2v0.5zM5.5 5.5v3h-1v-3h1z"></path>
</symbol>
<symbol id="icon-combo-chart" viewBox="0 0 10 10">
<title>combo-chart</title>
<path fill="#fff" style="fill: var(--color2, #fff)" d="M9.5 3h-1.5v3h-2v-1h-2v1.5h-2v0.5h-2v3h10v-7h-0.5zM0.5 9.5v-2h1v2h-1zM2.5 9.5v-2.5h1v2.5h-1zM4.5 9.5v-4h1v4h-1zM6.5 9.5v-3h1v3h-1zM9.5 9.5h-1v-6h1v6z"></path>
<path fill="#fff" style="fill: var(--color2, #fff)" d="M9 0c-0.3 0-0.5 0.2-0.5 0.5 0 0.050 0 0.1 0.050 0.2l-1.5 1.8c0 0-0.050 0-0.050 0-0.1 0-0.2 0.050-0.25 0.1l-1.25-0.65c0-0.25-0.25-0.45-0.5-0.45-0.3 0-0.5 0.2-0.5 0.5 0 0 0 0 0 0l-3.25 2.050c-0.1 0-0.15-0.050-0.25-0.050-0.3 0-0.5 0.2-0.5 0.5s0.2 0.5 0.5 0.5 0.5-0.2 0.5-0.5c0 0 0 0 0 0l3.25-2.050c0.1 0 0.15 0.050 0.25 0.050s0.2-0.050 0.25-0.1l1.25 0.65c0 0.25 0.25 0.45 0.5 0.45 0.3 0 0.5-0.2 0.5-0.5 0-0.050 0-0.1-0.050-0.2l1.5-1.8c0 0 0.050 0 0.050 0 0.3 0 0.5-0.2 0.5-0.5s-0.2-0.5-0.5-0.5z"></path>
</symbol>
<symbol id="icon-delete" viewBox="0 0 10 10">
<title>delete</title>
<path fill="#84bae7" style="fill: var(--color1, #84bae7)" d="M1.323 1.677l0.354-0.354 7 7-0.354 0.354-7-7z"></path>
<path fill="#84bae7" style="fill: var(--color1, #84bae7)" d="M1.323 8.323l7-7 0.354 0.354-7 7-0.354-0.354z"></path>
</symbol>
<symbol id="icon-fit-to-width" viewBox="0 0 10 10">
<title>fit-to-width</title>
<path fill="#b6b6b6" style="fill: var(--color3, #b6b6b6)" d="M0.811 0.531v0.279h-0.279v2.849h0.559v-2.179l2.29 2.346 0.447-0.391-2.346-2.346h2.402v-0.559z"></path>
<path fill="#b6b6b6" style="fill: var(--color3, #b6b6b6)" d="M9.189 0.531v0.279h0.279v2.849h-0.559v-2.179l-2.29 2.346-0.447-0.391 2.346-2.346h-2.402v-0.559z"></path>
<path fill="#b6b6b6" style="fill: var(--color3, #b6b6b6)" d="M0.811 9.469v-0.279h-0.279v-2.849h0.559v2.179l2.29-2.346 0.447 0.391-2.346 2.346h2.402v0.559z"></path>
<path fill="#b6b6b6" style="fill: var(--color3, #b6b6b6)" d="M9.189 9.469v-0.279h0.279v-2.849h-0.559v2.179l-2.29-2.346-0.447 0.391 2.346 2.346h-2.402v0.559z"></path>
</symbol>
<symbol id="icon-graph" viewBox="0 0 10 10">
<title>graph</title>
<path fill="#84bae7" style="fill: var(--color1, #84bae7)" d="M1 8.5h8v0.5h-8v-0.5z"></path>
<path fill="#84bae7" style="fill: var(--color1, #84bae7)" d="M1 9v-8h0.5v8h-0.5z"></path>
<path fill="#84bae7" style="fill: var(--color1, #84bae7)" d="M2.1 1h0.5v0.5h-0.5v-0.5z"></path>
<path fill="#84bae7" style="fill: var(--color1, #84bae7)" d="M4.1 1h0.5v0.5h-0.5v-0.5z"></path>
<path fill="#84bae7" style="fill: var(--color1, #84bae7)" d="M6.1 1h0.5v0.5h-0.5v-0.5z"></path>
<path fill="#84bae7" style="fill: var(--color1, #84bae7)" d="M8.1 1h0.5v0.5h-0.5v-0.5z"></path>
<path fill="#84bae7" style="fill: var(--color1, #84bae7)" d="M2.1 3h0.5v0.5h-0.5v-0.5z"></path>
<path fill="#84bae7" style="fill: var(--color1, #84bae7)" d="M4.1 3h0.5v0.5h-0.5v-0.5z"></path>
<path fill="#84bae7" style="fill: var(--color1, #84bae7)" d="M6.1 3h0.5v0.5h-0.5v-0.5z"></path>
<path fill="#84bae7" style="fill: var(--color1, #84bae7)" d="M8.1 3h0.5v0.5h-0.5v-0.5z"></path>
<path fill="#84bae7" style="fill: var(--color1, #84bae7)" d="M2.1 5h0.5v0.5h-0.5v-0.5z"></path>
<path fill="#84bae7" style="fill: var(--color1, #84bae7)" d="M4.1 5h0.5v0.5h-0.5v-0.5z"></path>
<path fill="#84bae7" style="fill: var(--color1, #84bae7)" d="M6.1 5h0.5v0.5h-0.5v-0.5z"></path>
<path fill="#84bae7" style="fill: var(--color1, #84bae7)" d="M8.1 5h0.5v0.5h-0.5v-0.5z"></path>
<path fill="#84bae7" style="fill: var(--color1, #84bae7)" d="M2.1 7h0.5v0.5h-0.5v-0.5z"></path>
<path fill="#84bae7" style="fill: var(--color1, #84bae7)" d="M4.1 7h0.5v0.5h-0.5v-0.5z"></path>
<path fill="#84bae7" style="fill: var(--color1, #84bae7)" d="M6.1 7h0.5v0.5h-0.5v-0.5z"></path>
<path fill="#84bae7" style="fill: var(--color1, #84bae7)" d="M8.1 7h0.5v0.5h-0.5v-0.5z"></path>
<path fill="#84bae7" style="fill: var(--color1, #84bae7)" d="M1.3 7l-0.3-0.4 3.15-2.75 1.8 2 2.7-2.95 0.35 0.35-3.050 3.35-1.85-2.1z"></path>
</symbol>
<symbol id="icon-refresh" viewBox="0 0 10 10">
<title>refresh</title>
<path fill="#b6b6b6" style="fill: var(--color3, #b6b6b6)" d="M2.512 2.223c1.331-1.273 3.414-1.273 4.803-0.174l-1.099 0.058c-0.116 0-0.231 0.116-0.231 0.289 0 0.116 0.116 0.231 0.231 0.231 0 0 0 0 0 0l1.678-0.058c0.116 0 0.231-0.116 0.231-0.231v0c0 0 0 0 0 0v0 0l-0.058-1.678c0-0.116-0.116-0.231-0.289-0.231-0.116 0-0.231 0.116-0.231 0.289l0.058 1.041c-0.694-0.579-1.562-0.868-2.43-0.926-1.099-0.174-2.199 0.231-3.009 0.984-1.157 1.041-1.62 2.604-1.273 4.108 0 0.116 0.116 0.174 0.231 0.174 0 0 0.058 0 0.058 0 0.116-0.058 0.231-0.174 0.174-0.289-0.289-1.331 0.116-2.72 1.157-3.587z"></path>
<path fill="#b6b6b6" style="fill: var(--color3, #b6b6b6)" d="M9.166 4.074c-0.058-0.116-0.174-0.231-0.289-0.174s-0.231 0.174-0.174 0.289c0.347 1.331-0.116 2.72-1.099 3.645-0.694 0.636-1.62 0.926-2.488 0.926-0.926 0-1.736-0.289-2.43-0.868l1.099-0.116c0.116 0 0.231-0.116 0.231-0.289 0-0.116-0.116-0.231-0.289-0.231l-1.678 0.174c-0.116 0-0.231 0.116-0.231 0.289l0.174 1.678c0 0.174 0.116 0.231 0.231 0.231 0 0 0 0 0 0 0.116 0 0.231-0.116 0.231-0.289l-0.116-1.041c0.694 0.579 1.562 0.868 2.43 0.926 0.058 0 0.116 0 0.231 0 1.041 0 2.025-0.405 2.835-1.099 1.157-0.984 1.678-2.546 1.331-4.050z"></path>
</symbol>
<symbol id="icon-restart" viewBox="0 0 10 10">
<title>restart</title>
<path fill="#b6b6b6" style="fill: var(--color3, #b6b6b6)" d="M9.394 4.278c0-0.181-0.181-0.301-0.421-0.301-0.181 0-0.301 0.181-0.301 0.421 0 0 0 0 0 0 0.361 2.047-1.023 4.033-3.13 4.394s-4.033-1.023-4.394-3.13 1.023-4.033 3.13-4.394c1.264-0.241 2.588 0.241 3.431 1.204l-1.505 0.482c-0.181 0.060-0.301 0.241-0.241 0.421 0 0 0 0 0 0 0.060 0.181 0.241 0.301 0.421 0.241 0 0 0 0 0 0l2.047-0.662c0.12-0.060 0.241-0.181 0.241-0.301v-2.107c0.060-0.241-0.060-0.361-0.241-0.361s-0.361 0.181-0.361 0.361v1.264c-1.806-1.746-4.575-1.625-6.26 0.12s-1.625 4.575 0.12 6.26 4.575 1.625 6.26-0.181c0.963-0.963 1.445-2.408 1.204-3.732z"></path>
</symbol>
<symbol id="icon-settings" viewBox="0 0 10 10">
<title>settings</title>
<path fill="#b6b6b6" style="fill: var(--color3, #b6b6b6)" d="M9.449 3.949l-0.68-0.124c-0.062-0.247-0.185-0.433-0.309-0.68l0.433-0.556c0.185-0.247 0.124-0.556-0.062-0.803l-0.618-0.618c-0.124-0.124-0.247-0.185-0.433-0.185-0.124 0-0.247 0.062-0.371 0.124l-0.556 0.432c-0.247-0.124-0.432-0.185-0.68-0.309l-0.124-0.68c-0.062-0.309-0.309-0.494-0.618-0.494h-0.865c-0.309 0-0.556 0.185-0.618 0.494l-0.124 0.742c-0.247 0.062-0.433 0.124-0.68 0.247l-0.556-0.371c-0.124-0.124-0.247-0.124-0.371-0.124s-0.309 0.062-0.433 0.185l-0.618 0.618c-0.185 0.185-0.247 0.494-0.062 0.742l0.433 0.556c-0.124 0.247-0.247 0.494-0.309 0.742l-0.68 0.124c-0.309 0-0.494 0.247-0.494 0.556v0.865c0 0.309 0.185 0.556 0.494 0.618l0.742 0.124c0.062 0.247 0.185 0.433 0.309 0.68l-0.433 0.556c-0.185 0.247-0.124 0.556 0.062 0.803l0.618 0.618c0.124 0.124 0.247 0.185 0.433 0.185 0.124 0 0.247-0.062 0.371-0.124l0.556-0.432c0.185 0.124 0.433 0.185 0.68 0.247l0.124 0.68c0.062 0.309 0.309 0.494 0.618 0.494h0.865c0.309 0 0.556-0.185 0.618-0.494l0.124-0.68c0.247-0.062 0.433-0.185 0.68-0.309l0.556 0.433c0.124 0.062 0.247 0.124 0.371 0.124v0c0.185 0 0.309-0.062 0.433-0.185l0.618-0.618c0.185-0.185 0.247-0.556 0.062-0.803l-0.494-0.494c0.124-0.247 0.185-0.433 0.309-0.68l0.68-0.124c0.309-0.062 0.494-0.309 0.494-0.618v-0.865c0-0.309-0.185-0.556-0.494-0.618zM9.387 5.433c0 0 0 0.062 0 0l-0.927 0.185c-0.124 0-0.185 0.124-0.247 0.185-0.062 0.309-0.185 0.618-0.371 0.865-0.062 0.124-0.062 0.185 0 0.309l0.494 0.742c0 0 0 0.062 0 0.062l-0.618 0.618c0 0 0 0-0.062 0 0 0 0 0-0.062 0l-0.742-0.494c-0.062-0.062-0.185-0.062-0.309 0-0.247 0.185-0.556 0.309-0.865 0.371-0.124 0-0.185 0.124-0.185 0.247v0.803c0 0 0 0.062-0.062 0.062h-0.865c0 0-0.062 0-0.062-0.062l-0.124-0.865c0-0.124-0.124-0.185-0.185-0.247-0.309-0.062-0.556-0.185-0.865-0.371-0.062 0-0.124-0.062-0.124-0.062-0.062 0-0.124 0-0.185 0.062l-0.742 0.494c0 0 0 0-0.062 0 0 0 0 0-0.062 0l-0.618-0.618c0 0 0-0.062 0-0.062l0.494-0.742c0.062-0.062 0.062-0.185 0-0.309-0.185-0.247-0.309-0.556-0.371-0.865 0-0.124-0.124-0.185-0.247-0.185l-0.742-0.062c0 0-0.062 0-0.062-0.062v-0.865c0 0 0-0.062 0.062-0.062l0.865-0.124c0.124 0 0.185-0.124 0.247-0.185 0.062-0.309 0.185-0.618 0.371-0.865 0.062-0.124 0.062-0.185 0-0.309l-0.618-0.742c0 0 0-0.062 0-0.062l0.618-0.618c0 0 0 0 0.062 0 0 0 0 0 0.062 0l0.742 0.494c0.062 0.062 0.185 0.062 0.309 0 0.247-0.185 0.556-0.309 0.865-0.371 0.124 0 0.185-0.124 0.185-0.247l0.124-0.803c0 0 0-0.062 0.062-0.062h0.865c0 0 0.062 0 0.062 0.062l0.124 0.865c0 0.124 0.124 0.185 0.185 0.247 0.309 0.062 0.618 0.185 0.865 0.371 0.124 0.062 0.185 0.062 0.309 0l0.742-0.494c0 0 0 0 0.062 0 0 0 0 0 0.062 0l0.618 0.618c0 0 0 0.062 0 0.062l-0.494 0.742c-0.062 0.062-0.062 0.185 0 0.309 0.185 0.247 0.309 0.556 0.371 0.865 0 0.124 0.124 0.185 0.247 0.185l0.742 0.062c0 0 0.062 0 0.062 0.062v0.865z"></path>
<path fill="#b6b6b6" style="fill: var(--color3, #b6b6b6)" d="M5 2.837c-1.174 0-2.163 0.927-2.163 2.163s0.927 2.163 2.163 2.163 2.163-0.927 2.163-2.163-0.989-2.163-2.163-2.163zM5 6.545c-0.865 0-1.607-0.68-1.607-1.607s0.742-1.545 1.607-1.545 1.607 0.68 1.607 1.607-0.742 1.545-1.607 1.545z"></path>
</symbol>
<symbol id="icon-close" viewBox="0 0 10 10">
<title>close</title>
<path fill="#84bae7" style="fill: var(--color1, #84bae7)" d="M10 5c0 2.761-2.239 5-5 5s-5-2.239-5-5c0-2.761 2.239-5 5-5s5 2.239 5 5z"></path>
<path fill="#fff" style="fill: var(--color2, #fff)" d="M7.45 2.95l-0.4-0.4-2.050 2.1-2.050-2.1-0.4 0.4 2.1 2.050-2.1 2.050 0.4 0.4 2.050-2.1 2.050 2.1 0.4-0.4-2.1-2.050z"></path>
</symbol>
<symbol id="icon-close_ac" viewBox="0 0 10 10">
<title>close_ac</title>
<path fill="#f87b00" style="fill: var(--color4, #f87b00)" d="M10 5c0 2.761-2.239 5-5 5s-5-2.239-5-5c0-2.761 2.239-5 5-5s5 2.239 5 5z"></path>
<path fill="#fff" style="fill: var(--color2, #fff)" d="M7.45 2.95l-0.4-0.4-2.050 2.1-2.050-2.1-0.4 0.4 2.1 2.050-2.1 2.050 0.4 0.4 2.050-2.1 2.050 2.1 0.4-0.4-2.1-2.050z"></path>
</symbol>
<symbol id="icon-devices" viewBox="0 0 10 10">
<title>devices</title>
<path fill="#84bae7" style="fill: var(--color1, #84bae7)" d="M9.958 2.375l-2.333-2.333c-0.083-0.083-0.167-0.083-0.25 0l-1.792 1.75-0.375-0.375c-0.083-0.083-0.167-0.083-0.25 0l-4.583 4.583c-0.458 0.458-0.542 1.25-0.167 1.792l0.25 0.375c0.375 0.542 0.792 1 1.333 1.333l0.458 0.292c0.208 0.167 0.458 0.208 0.708 0.208 0.333 0 0.667-0.125 0.917-0.375l4.667-4.667c0.083-0.083 0.083-0.167 0-0.25l-0.333-0.333 1.75-1.75c0.042-0.083 0.042-0.167 0-0.25zM3.667 9.375c-0.333 0.333-0.833 0.375-1.25 0.125l-0.458-0.292c-0.5-0.333-0.917-0.75-1.208-1.208l-0.25-0.375c-0.292-0.417-0.208-1 0.167-1.375l4.458-4.458 0.333 0.333c0 0 0 0 0.042 0.042l2.375 2.333c0 0 0.042 0.042 0.042 0.042l0.333 0.333-4.583 4.5zM7.958 4.167l-2.125-2.125 1.667-1.625 2.083 2.083-1.625 1.667z"></path>
<path fill="#84bae7" style="fill: var(--color1, #84bae7)" d="M7.375 1l-0.458 0.458c-0.083 0.083-0.083 0.167 0 0.25l0.458 0.458c0.042 0.042 0.083 0.042 0.125 0.042s0.083 0 0.125-0.042l0.458-0.5c0.083-0.083 0.083-0.167 0-0.25l-0.458-0.458c-0.083-0.042-0.208-0.042-0.25 0.042zM7.708 1.542l-0.25 0.25-0.25-0.25 0.25-0.25 0.25 0.25z"></path>
<path fill="#84bae7" style="fill: var(--color1, #84bae7)" d="M7.833 2.625l0.458 0.458c0.042 0.042 0.083 0.042 0.125 0.042s0.083 0 0.125-0.042l0.458-0.458c0.083-0.083 0.083-0.167 0-0.25l-0.458-0.458c-0.083-0.083-0.167-0.083-0.25 0l-0.458 0.458c-0.083 0.083-0.083 0.167 0 0.25zM8.417 2.25l0.25 0.25-0.25 0.25-0.25-0.25 0.25-0.25z"></path>
<path fill="#84bae7" style="fill: var(--color1, #84bae7)" d="M5.708 5.667c-0.083-0.083-0.167-0.083-0.25 0l-0.458 0.5c-0.083 0.083-0.083 0.167 0 0.25l0.125 0.125-0.25 0.25-0.958-0.417 1.458-1.458v0.292c0 0.083 0.083 0.167 0.167 0.167s0.167-0.083 0.167-0.167v-0.708c0-0.083-0.083-0.167-0.167-0.167v0c0 0 0 0 0 0h-0.833c-0.083 0-0.167 0.083-0.167 0.167s0.083 0.167 0.167 0.167h0.417l-1.625 1.583c-0.042 0-0.083 0.042-0.083 0.083l-0.125 0.125-0.458-0.958 0.333-0.333c0.042 0 0.083 0 0.167 0 0.292 0 0.5-0.208 0.5-0.5s-0.208-0.5-0.5-0.5-0.5 0.208-0.5 0.5c0 0.125 0.042 0.208 0.083 0.292l-0.375 0.375c-0.042 0.042-0.083 0.125-0.042 0.167l0.542 1.208-0.208 0.208c-0.083-0.042-0.208-0.083-0.333-0.083-0.375 0-0.667 0.292-0.667 0.667s0.292 0.667 0.667 0.667 0.667-0.292 0.667-0.667c0-0.125-0.042-0.25-0.083-0.333l0.583-0.583 1.167 0.542c0 0 0.042 0 0.083 0s0.083 0 0.125-0.042l0.333-0.375 0.125 0.125c0.042 0.042 0.083 0.042 0.125 0.042s0.083 0 0.125-0.083l0.458-0.458c0.083-0.083 0.083-0.167 0-0.25l-0.5-0.417zM3.333 4.5c0.083 0 0.167 0.083 0.167 0.167s-0.083 0.167-0.167 0.167-0.167-0.083-0.167-0.167 0.083-0.167 0.167-0.167zM2.5 7.833c-0.167 0-0.333-0.167-0.333-0.333s0.167-0.333 0.333-0.333 0.333 0.167 0.333 0.333c0 0.167-0.167 0.333-0.333 0.333zM5.583 6.5l-0.25-0.25 0.25-0.25 0.25 0.25-0.25 0.25z"></path>
</symbol>
<symbol id="icon-disk" viewBox="0 0 10 10">
<title>disk</title>
<path fill="#84bae7" style="fill: var(--color1, #84bae7)" d="M9.917 5.792v0l-1.792-4c-0.167-0.375-0.542-0.625-0.958-0.625h-4.333c-0.417 0-0.792 0.25-0.958 0.625l-1.792 4c-0.042 0.125-0.083 0.25-0.083 0.375v1.667c0 0.458 0.375 0.833 0.833 0.833h8.333c0.458 0 0.833-0.375 0.833-0.833v-1.667c0-0.125-0.042-0.25-0.083-0.375zM2.25 1.958c0.083-0.208 0.333-0.375 0.583-0.375h4.333c0.25 0 0.458 0.125 0.583 0.375l1.5 3.375c-0.042 0-0.042 0-0.083 0h-8.333c-0.042 0-0.042 0-0.083 0l1.5-3.375zM9.583 7.833c0 0.25-0.167 0.417-0.417 0.417h-8.333c-0.25 0-0.417-0.167-0.417-0.417v-1.667c0-0.25 0.167-0.417 0.417-0.417h8.333c0.25 0 0.417 0.167 0.417 0.417v1.667z"></path>
<path fill="#84bae7" style="fill: var(--color1, #84bae7)" d="M8.75 7c0 0.23-0.187 0.417-0.417 0.417s-0.417-0.187-0.417-0.417c0-0.23 0.187-0.417 0.417-0.417s0.417 0.187 0.417 0.417z"></path>
<path fill="#84bae7" style="fill: var(--color1, #84bae7)" d="M5 5c-1.25 0-2.25-0.667-2.25-1.542 0.042-0.833 1-1.5 2.25-1.5s2.25 0.667 2.25 1.542c0 0.833-1 1.5-2.25 1.5zM5 2.375c-1 0-1.833 0.5-1.833 1.125 0 0.583 0.833 1.125 1.833 1.125s1.833-0.5 1.833-1.125c0-0.625-0.833-1.125-1.833-1.125z"></path>
<path fill="#84bae7" style="fill: var(--color1, #84bae7)" d="M5.292 3.458c0 0.092-0.131 0.167-0.292 0.167s-0.292-0.075-0.292-0.167c0-0.092 0.131-0.167 0.292-0.167s0.292 0.075 0.292 0.167z"></path>
</symbol>
<symbol id="icon-files" viewBox="0 0 10 10">
<title>files</title>
<path fill="#84bae7" style="fill: var(--color1, #84bae7)" d="M7.542 4.167h-4.167c-0.083 0-0.167 0.083-0.167 0.167s0.083 0.167 0.167 0.167h4.167c0.083 0 0.167-0.083 0.167-0.167s-0.042-0.167-0.167-0.167z"></path>
<path fill="#84bae7" style="fill: var(--color1, #84bae7)" d="M3.375 3.167h1.667c0.083 0 0.167-0.083 0.167-0.167s-0.083-0.167-0.167-0.167h-1.667c-0.083 0-0.167 0.083-0.167 0.167s0.083 0.167 0.167 0.167z"></path>
<path fill="#84bae7" style="fill: var(--color1, #84bae7)" d="M7.542 5.5h-4.167c-0.083 0-0.167 0.083-0.167 0.167s0.083 0.167 0.167 0.167h4.167c0.083 0 0.167-0.083 0.167-0.167s-0.042-0.167-0.167-0.167z"></path>
<path fill="#84bae7" style="fill: var(--color1, #84bae7)" d="M7.542 6.833h-4.167c-0.083 0-0.167 0.083-0.167 0.167s0.083 0.167 0.167 0.167h4.167c0.083 0 0.167-0.083 0.167-0.167s-0.042-0.167-0.167-0.167z"></path>
<path fill="#84bae7" style="fill: var(--color1, #84bae7)" d="M7.542 8.167h-4.167c-0.083 0-0.167 0.083-0.167 0.167s0.083 0.167 0.167 0.167h4.167c0.083 0 0.167-0.083 0.167-0.167s-0.042-0.167-0.167-0.167z"></path>
<path fill="#84bae7" style="fill: var(--color1, #84bae7)" d="M8.208 2.417v-2.417h-7.167v9.167h0.833v0.833h7.167v-6.75l-0.833-0.833zM6.708 1.417l1.75 1.75h-1.75v-1.75zM1.375 8.833v-8.5h6.5v1.75l-1.25-1.25h-4.75v8h-0.5zM2.208 9.667v-8.5h4.167v2.333h2.333v6.167h-6.5z"></path>
</symbol>
<symbol id="icon-search" viewBox="0 0 10 10">
<title>search</title>
<path fill="#fff" style="fill: var(--color2, #fff)" d="M0.917 9.125c0.042 0.042 0.083 0.042 0.167 0.042s0.125 0 0.167-0.042l2.042-2.042c0.625 0.542 1.458 0.875 2.333 0.875 1.958 0 3.542-1.583 3.542-3.542s-1.583-3.583-3.542-3.583c-1.958 0-3.542 1.583-3.542 3.542 0 0.875 0.333 1.708 0.875 2.333l-2.042 2.042c-0.125 0.125-0.125 0.25 0 0.375zM5.625 7.458c-1.708 0-3.042-1.375-3.042-3.083s1.375-3.042 3.042-3.042c1.667 0 3.042 1.375 3.042 3.042s-1.333 3.083-3.042 3.083z"></path>
</symbol>
<symbol id="icon-select-column" viewBox="0 0 10 10">
<title>select-column</title>
<path fill="#fff" style="fill: var(--color2, #fff)" d="M0.833 0.833h0.417v8.333h-0.417v-8.333z"></path>
<path fill="#fff" style="fill: var(--color2, #fff)" d="M5 0.833h0.417v8.333h-0.417v-8.333z"></path>
<path fill="#fff" style="fill: var(--color2, #fff)" d="M0.833 0.833h4.583v0.417h-4.583v-0.417z"></path>
<path fill="#fff" style="fill: var(--color2, #fff)" d="M0.833 8.75h4.583v0.417h-4.583v-0.417z"></path>
<path fill="#fff" style="fill: var(--color2, #fff)" d="M1.667 3.75h0.417v0.417h-0.417v-0.417z"></path>
<path fill="#fff" style="fill: var(--color2, #fff)" d="M2.5 3.75h0.417v0.417h-0.417v-0.417z"></path>
<path fill="#fff" style="fill: var(--color2, #fff)" d="M3.333 3.75h0.417v0.417h-0.417v-0.417z"></path>
<path fill="#fff" style="fill: var(--color2, #fff)" d="M4.167 3.75h0.417v0.417h-0.417v-0.417z"></path>
<path fill="#fff" style="fill: var(--color2, #fff)" d="M5.833 3.75h0.417v0.417h-0.417v-0.417z"></path>
<path fill="#fff" style="fill: var(--color2, #fff)" d="M6.667 3.75h0.417v0.417h-0.417v-0.417z"></path>
<path fill="#fff" style="fill: var(--color2, #fff)" d="M7.5 3.75h0.417v0.417h-0.417v-0.417z"></path>
<path fill="#fff" style="fill: var(--color2, #fff)" d="M8.333 3.75h0.417v0.417h-0.417v-0.417z"></path>
<path fill="#fff" style="fill: var(--color2, #fff)" d="M5.833 6.25h0.417v0.417h-0.417v-0.417z"></path>
<path fill="#fff" style="fill: var(--color2, #fff)" d="M6.667 6.25h0.417v0.417h-0.417v-0.417z"></path>
<path fill="#fff" style="fill: var(--color2, #fff)" d="M7.5 6.25h0.417v0.417h-0.417v-0.417z"></path>
<path fill="#fff" style="fill: var(--color2, #fff)" d="M8.333 6.25h0.417v0.417h-0.417v-0.417z"></path>
<path fill="#fff" style="fill: var(--color2, #fff)" d="M5.833 8.75h0.417v0.417h-0.417v-0.417z"></path>
<path fill="#fff" style="fill: var(--color2, #fff)" d="M6.667 8.75h0.417v0.417h-0.417v-0.417z"></path>
<path fill="#fff" style="fill: var(--color2, #fff)" d="M7.5 8.75h0.417v0.417h-0.417v-0.417z"></path>
<path fill="#fff" style="fill: var(--color2, #fff)" d="M8.333 8.75h0.417v0.417h-0.417v-0.417z"></path>
<path fill="#fff" style="fill: var(--color2, #fff)" d="M5.833 0.833h0.417v0.417h-0.417v-0.417z"></path>
<path fill="#fff" style="fill: var(--color2, #fff)" d="M6.667 0.833h0.417v0.417h-0.417v-0.417z"></path>
<path fill="#fff" style="fill: var(--color2, #fff)" d="M7.5 0.833h0.417v0.417h-0.417v-0.417z"></path>
<path fill="#fff" style="fill: var(--color2, #fff)" d="M8.333 0.833h0.417v0.417h-0.417v-0.417z"></path>
<path fill="#fff" style="fill: var(--color2, #fff)" d="M9.167 0.833v0.417h-0.417v-0.417h0.417z"></path>
<path fill="#fff" style="fill: var(--color2, #fff)" d="M8.75 1.667v-0.417h0.417v0.417h-0.417z"></path>
<path fill="#fff" style="fill: var(--color2, #fff)" d="M9.167 2.083v0.417h-0.417v-0.417h0.417z"></path>
<path fill="#fff" style="fill: var(--color2, #fff)" d="M9.167 3.75v0.417h-0.417v-0.417h0.417z"></path>
<path fill="#fff" style="fill: var(--color2, #fff)" d="M9.167 3.333v0.417h-0.417v-0.417h0.417z"></path>
<path fill="#fff" style="fill: var(--color2, #fff)" d="M9.167 4.167v0.417h-0.417v-0.417h0.417z"></path>
<path fill="#fff" style="fill: var(--color2, #fff)" d="M9.167 5v0.417h-0.417v-0.417h0.417z"></path>
<path fill="#fff" style="fill: var(--color2, #fff)" d="M9.167 5.833v0.417h-0.417v-0.417h0.417z"></path>
<path fill="#fff" style="fill: var(--color2, #fff)" d="M9.167 6.25v0.417h-0.417v-0.417h0.417z"></path>
<path fill="#fff" style="fill: var(--color2, #fff)" d="M9.167 6.667v0.417h-0.417v-0.417h0.417z"></path>
<path fill="#fff" style="fill: var(--color2, #fff)" d="M9.167 8.75v0.417h-0.417v-0.417h0.417z"></path>
<path fill="#fff" style="fill: var(--color2, #fff)" d="M9.167 8.333v0.417h-0.417v-0.417h0.417z"></path>
<path fill="#fff" style="fill: var(--color2, #fff)" d="M9.167 7.5v0.417h-0.417v-0.417h0.417z"></path>
<path fill="#fff" style="fill: var(--color2, #fff)" d="M1.667 6.25h0.417v0.417h-0.417v-0.417z"></path>
<path fill="#fff" style="fill: var(--color2, #fff)" d="M2.5 6.25h0.417v0.417h-0.417v-0.417z"></path>
<path fill="#fff" style="fill: var(--color2, #fff)" d="M3.333 6.25h0.417v0.417h-0.417v-0.417z"></path>
<path fill="#fff" style="fill: var(--color2, #fff)" d="M4.167 6.25h0.417v0.417h-0.417v-0.417z"></path>
</symbol>
<symbol id="icon-users" viewBox="0 0 10 10">
<title>users</title>
<path fill="#84bae7" style="fill: var(--color1, #84bae7)" d="M9.25 8.125l-1.625-0.708c-0.042 0-0.083-0.083-0.125-0.125h1.083c0 0 0.458 0.042 0.833-0.125 0.125-0.042 0.25-0.167 0.292-0.333s0-0.292-0.083-0.417c-0.292-0.458-1.042-1.625-1.042-2.833 0 0-0.083-2.042-2.042-2.083-0.292 0-0.542 0.042-0.792 0.125-0.042-0.125-0.125-0.292-0.25-0.417-0.333-0.417-0.917-0.583-1.667-0.583s-1.292 0.208-1.667 0.625c-0.375 0.458-0.333 1-0.333 1.083v0.917c-0.125 0.125-0.167 0.292-0.167 0.458v0.667c0 0.208 0.083 0.417 0.25 0.542 0.167 0.625 0.458 1.083 0.583 1.25v0.583c0 0.167-0.083 0.333-0.25 0.375l-1.5 0.833c-0.458 0.25-0.75 0.75-0.75 1.333v0.708h10v-0.625c0-0.542-0.292-1-0.75-1.25zM7.333 9.667h-7v-0.375c0-0.417 0.25-0.833 0.625-1.042l1.5-0.833c0.25-0.125 0.417-0.417 0.417-0.708v-0.667l-0.042-0.042c0 0-0.417-0.5-0.583-1.208v-0.083l-0.042-0.042c-0.083-0.083-0.167-0.167-0.167-0.292v-0.667c0-0.083 0.042-0.167 0.125-0.25l0.042-0.042v-1.125c0 0-0.042-0.458 0.25-0.875 0.292-0.333 0.75-0.5 1.417-0.5s1.125 0.167 1.417 0.5c0.125 0.167 0.208 0.333 0.25 0.5 0 0 0 0.042 0 0.042s0 0.042 0 0.042c0 0 0 0.042 0 0.042s0 0 0 0.042 0 0.042 0 0.042 0 0 0 0 0 0.042 0 0.042c0 0 0 0 0 0s0 0.042 0 0.042c0 0 0 0 0 0 0 0.042 0 0.083 0 0.083v1.083l0.042 0.042c0.083 0.083 0.125 0.167 0.125 0.25v0.667c0 0.167-0.083 0.292-0.25 0.333l-0.083 0.042-0.042 0.083c-0.125 0.333-0.25 0.667-0.458 0.958-0.042 0.083-0.083 0.125-0.125 0.167l-0.042 0.042v0.708c0 0.042 0 0.083 0 0.125 0 0 0 0 0 0.042s0 0.083 0.042 0.083c0 0 0 0 0 0.042s0.042 0.083 0.042 0.083c0 0 0 0 0 0 0.042 0.042 0.042 0.083 0.083 0.125l0.042 0.042c0.042 0.042 0.125 0.125 0.208 0.125l1.583 0.833c0.417 0.208 0.667 0.625 0.667 1.083v0.417zM9.667 9.667h-2v-0.333c0-0.583-0.333-1.125-0.833-1.375l-1.125-0.583c0.042-0.083 0.042-0.125 0-0.208-0.042-0.125-0.167-0.208-0.292-0.208h-0.375c0 0 0-0.042 0-0.042s0-0.042-0.042-0.042c0-0.042 0-0.083 0-0.125v-0.583c0.042-0.042 0.083-0.083 0.125-0.167 0.208-0.292 0.375-0.625 0.5-1 0.25-0.125 0.375-0.333 0.375-0.625v-0.667c0-0.167-0.042-0.333-0.167-0.458v-0.917c0-0.042 0-0.167 0-0.375 0.208-0.083 0.458-0.125 0.708-0.125 1.625 0 1.708 1.667 1.708 1.75 0.042 1.292 0.792 2.542 1.125 3 0.042 0.042 0.042 0.083 0.042 0.125s-0.042 0.083-0.083 0.125c-0.292 0.125-0.667 0.083-0.667 0.083h-1.167c-0.125 0-0.208 0.042-0.25 0.167-0.042 0.083-0.042 0.208 0 0.292 0.042 0.125 0.125 0.25 0.292 0.333l1.625 0.708c0.333 0.167 0.542 0.542 0.542 0.917v0.333z"></path>
</symbol>
<symbol id="icon-width" viewBox="0 0 10 10">
<title>width</title>
<path fill="#fff" style="fill: var(--color2, #fff)" d="M0.833 1.667h0.417v6.667h-0.417v-6.667z"></path>
<path fill="#fff" style="fill: var(--color2, #fff)" d="M8.75 1.667h0.417v6.667h-0.417v-6.667z"></path>
<path fill="#fff" style="fill: var(--color2, #fff)" d="M1.25 1.667h0.417v0.417h-0.417v-0.417z"></path>
<path fill="#fff" style="fill: var(--color2, #fff)" d="M2.083 1.667h0.417v0.417h-0.417v-0.417z"></path>
<path fill="#fff" style="fill: var(--color2, #fff)" d="M2.917 1.667h0.417v0.417h-0.417v-0.417z"></path>
<path fill="#fff" style="fill: var(--color2, #fff)" d="M3.75 1.667h0.417v0.417h-0.417v-0.417z"></path>
<path fill="#fff" style="fill: var(--color2, #fff)" d="M4.583 1.667h0.417v0.417h-0.417v-0.417z"></path>
<path fill="#fff" style="fill: var(--color2, #fff)" d="M1.25 7.917h0.417v0.417h-0.417v-0.417z"></path>
<path fill="#fff" style="fill: var(--color2, #fff)" d="M2.083 7.917h0.417v0.417h-0.417v-0.417z"></path>
<path fill="#fff" style="fill: var(--color2, #fff)" d="M2.917 7.917h0.417v0.417h-0.417v-0.417z"></path>
<path fill="#fff" style="fill: var(--color2, #fff)" d="M3.75 7.917h0.417v0.417h-0.417v-0.417z"></path>
<path fill="#fff" style="fill: var(--color2, #fff)" d="M4.583 7.917h0.417v0.417h-0.417v-0.417z"></path>
<path fill="#fff" style="fill: var(--color2, #fff)" d="M5.417 1.667h0.417v0.417h-0.417v-0.417z"></path>
<path fill="#fff" style="fill: var(--color2, #fff)" d="M5.417 7.917h0.417v0.417h-0.417v-0.417z"></path>
<path fill="#fff" style="fill: var(--color2, #fff)" d="M6.25 1.667h0.417v0.417h-0.417v-0.417z"></path>
<path fill="#fff" style="fill: var(--color2, #fff)" d="M6.25 7.917h0.417v0.417h-0.417v-0.417z"></path>
<path fill="#fff" style="fill: var(--color2, #fff)" d="M7.083 1.667h0.417v0.417h-0.417v-0.417z"></path>
<path fill="#fff" style="fill: var(--color2, #fff)" d="M7.083 7.917h0.417v0.417h-0.417v-0.417z"></path>
<path fill="#fff" style="fill: var(--color2, #fff)" d="M7.917 1.667h0.417v0.417h-0.417v-0.417z"></path>
<path fill="#fff" style="fill: var(--color2, #fff)" d="M7.917 7.917h0.417v0.417h-0.417v-0.417z"></path>
<path fill="#fff" style="fill: var(--color2, #fff)" d="M8.333 1.667h0.417v0.417h-0.417v-0.417z"></path>
<path fill="#fff" style="fill: var(--color2, #fff)" d="M8.333 7.917h0.417v0.417h-0.417v-0.417z"></path>
<path fill="#fff" style="fill: var(--color2, #fff)" d="M2.083 4.583h5.833v0.833h-5.833v-0.833z"></path>
<path fill="#fff" style="fill: var(--color2, #fff)" d="M2.5 4.167h0.417v0.417h-0.417v-0.417z"></path>
<path fill="#fff" style="fill: var(--color2, #fff)" d="M2.5 5.417h0.417v0.417h-0.417v-0.417z"></path>
<path fill="#fff" style="fill: var(--color2, #fff)" d="M1.875 4.792h0.417v0.417h-0.417v-0.417z"></path>
<path fill="#fff" style="fill: var(--color2, #fff)" d="M7.083 4.167h0.417v0.417h-0.417v-0.417z"></path>
<path fill="#fff" style="fill: var(--color2, #fff)" d="M7.083 5.417h0.417v0.417h-0.417v-0.417z"></path>
<path fill="#fff" style="fill: var(--color2, #fff)" d="M7.708 4.792h0.417v0.417h-0.417v-0.417z"></path>
</symbol>
<symbol id="icon-login" viewBox="0 0 10 10">
<title>login</title>
<path fill="#84bae7" style="fill: var(--color1, #84bae7)" d="M10 5c0-2.767-2.233-5-5-5s-5 2.233-5 5c0 1.467 0.633 2.767 1.633 3.667v0l0.167 0.133c0 0 0.033 0 0.033 0.033 0.067 0.1 0.167 0.167 0.233 0.233 0.033 0.033 0.067 0.033 0.1 0.067 0.1 0.067 0.2 0.133 0.3 0.2 0.033 0 0.033 0 0.067 0 0.1 0.067 0.233 0.133 0.333 0.167 0 0 0.033 0 0.033 0 0.367 0.167 0.8 0.3 1.2 0.367 0 0 0.033 0 0.033 0 0.133 0.033 0.267 0.033 0.4 0.067 0 0 0.033 0 0.033 0 0.133 0 0.267 0.033 0.4 0.033s0.267 0 0.4-0.033c0.033 0 0.033 0 0.067 0 0.133 0 0.267-0.033 0.4-0.067 0 0 0.033 0 0.033 0 0.433-0.067 0.833-0.2 1.2-0.367 0 0 0.033 0 0.033-0.033 0.1-0.067 0.233-0.1 0.333-0.167 0.033 0 0.067-0.033 0.067-0.033 0.1-0.067 0.2-0.133 0.3-0.167 0.033-0.033 0.067-0.033 0.1-0.067 0.067-0.067 0.167-0.133 0.233-0.167 0.033 0 0.033-0.033 0.067-0.033l0.167-0.133c1-0.933 1.633-2.233 1.633-3.7zM8.1 8.433c0 0 0 0.033 0 0-0.033 0.033-0.033 0.033-0.033 0.033-0.1 0.1-0.2 0.167-0.3 0.233 0 0 0 0 0 0-0.033 0-0.033 0.033-0.067 0.033 0 0-0.033 0-0.033 0.033-0.067 0.033-0.1 0.067-0.167 0.1 0 0 0 0 0 0-0.033 0.033-0.067 0.033-0.1 0.067s-0.067 0.033-0.1 0.067-0.133 0.067-0.167 0.1c0 0-0.033 0-0.033 0.033-0.033 0-0.067 0.033-0.1 0.033-0.133 0.067-0.267 0.133-0.4 0.167-0.033 0-0.1 0.033-0.133 0.033 0 0 0 0-0.033 0 0 0 0 0 0 0-0.067 0.033-0.133 0.033-0.2 0.067-0.033 0-0.067 0.033-0.133 0.033 0 0 0 0 0 0-0.033 0-0.067 0-0.067 0-0.067 0-0.133 0.033-0.2 0.033-0.033 0-0.067 0-0.1 0.033 0 0 0 0 0 0-0.067 0-0.1 0-0.167 0.033-0.067 0-0.1 0-0.167 0.033 0 0 0 0-0.033 0s-0.033 0-0.067 0c-0.1 0-0.233 0-0.333 0s-0.233 0-0.333 0c-0.033 0-0.033 0-0.067 0 0 0 0 0-0.033 0-0.067 0-0.1 0-0.167-0.033-0.067 0-0.1 0-0.167-0.033 0 0 0 0 0 0-0.033 0-0.067 0-0.067 0-0.067 0-0.133-0.033-0.2-0.033s-0.133-0.033-0.2-0.033c-0.067-0.033-0.133-0.033-0.233-0.067 0 0 0 0-0.033 0 0 0 0 0-0.033 0s-0.067-0.033-0.133-0.033c-0.133-0.067-0.3-0.133-0.433-0.2-0.033 0-0.067-0.033-0.1-0.033 0 0 0 0 0 0-0.067-0.033-0.133-0.067-0.2-0.133-0.033-0.033-0.067-0.033-0.1-0.067-0.033 0-0.033-0.033-0.067-0.033-0.067-0.033-0.133-0.067-0.167-0.133-0.033-0.033-0.067-0.033-0.067-0.067 0 0 0 0-0.033-0.033 0 0 0 0 0 0-0.1-0.067-0.2-0.167-0.3-0.233 0 0 0 0 0 0s-0.033-0.033-0.033-0.033c-0.1-0.1-0.167-0.167-0.267-0.267-0.033-0.033-0.033-0.033-0.067-0.067-0.067-0.1-0.167-0.2-0.233-0.267-0.033-0.033-0.033-0.067-0.067-0.1-0.067-0.1-0.133-0.2-0.2-0.3 0.067-0.033 0.033-0.067 0-0.1-0.067-0.1-0.1-0.2-0.167-0.3-0.033-0.033-0.033-0.067-0.067-0.1 0-0.133-0.067-0.233-0.1-0.333 0-0.033-0.033-0.1-0.033-0.133-0.033-0.1-0.067-0.2-0.1-0.333 0-0.033-0.033-0.1-0.033-0.133-0.033-0.1-0.033-0.233-0.067-0.333 0-0.033 0-0.1-0.033-0.133-0.033-0.167-0.033-0.333-0.033-0.5 0.033-2.567 2.1-4.633 4.667-4.633s4.633 2.067 4.633 4.633c0 0.167 0 0.333-0.033 0.5 0 0.033 0 0.1-0.033 0.133 0 0.1-0.033 0.233-0.067 0.333 0 0.033-0.033 0.1-0.033 0.133-0.033 0.1-0.067 0.233-0.1 0.333 0 0.033-0.033 0.1-0.033 0.133-0.033 0.1-0.067 0.2-0.133 0.333-0.033 0.033-0.033 0.067-0.067 0.1-0.067 0.1-0.1 0.2-0.167 0.3-0.033 0.033-0.033 0.067-0.067 0.1-0.067 0.1-0.133 0.2-0.2 0.3-0.033 0.033-0.033 0.067-0.067 0.067-0.067 0.1-0.167 0.2-0.233 0.3-0.033 0.033-0.033 0.033-0.067 0.067-0.033 0.133-0.133 0.2-0.233 0.3z"></path>
<path fill="#84bae7" style="fill: var(--color1, #84bae7)" d="M7 2.6h-2.9c-0.133 0-0.2 0.1-0.2 0.2v2.067h-1.367c-0.133 0-0.2 0.1-0.2 0.2s0.1 0.2 0.2 0.2h1.367v-0.433h1.633l-0.6-0.6c-0.1-0.1-0.1-0.233 0-0.3 0.1-0.1 0.233-0.1 0.3 0l0.967 0.967c0.1 0.1 0.1 0.233 0 0.3l-0.967 0.967c-0.033 0.033-0.1 0.067-0.167 0.067s-0.1-0.033-0.167-0.067c-0.1-0.1-0.1-0.233 0-0.3l0.6-0.6h-1.633v2.067c0 0.133 0.1 0.2 0.2 0.2h2.933c0.133 0 0.2-0.1 0.2-0.2v-4.5c0.033-0.133-0.067-0.233-0.2-0.233z"></path>
</symbol>
<symbol id="icon-password" viewBox="0 0 10 10">
<title>password</title>
<path fill="#84bae7" style="fill: var(--color1, #84bae7)" d="M10 5c0-2.767-2.233-5-5-5s-5 2.233-5 5c0 1.467 0.633 2.767 1.633 3.667v0l0.167 0.133c0 0 0.033 0 0.033 0.033 0.067 0.1 0.167 0.167 0.233 0.233 0.033 0.033 0.067 0.033 0.1 0.067 0.1 0.067 0.2 0.133 0.3 0.2 0.033 0 0.033 0 0.067 0 0.1 0.067 0.233 0.133 0.333 0.167 0 0 0.033 0 0.033 0 0.367 0.167 0.8 0.3 1.2 0.367 0 0 0.033 0 0.033 0 0.133 0.033 0.267 0.033 0.4 0.067 0 0 0.033 0 0.033 0 0.133 0 0.267 0.033 0.4 0.033s0.267 0 0.4-0.033c0.033 0 0.033 0 0.067 0 0.133 0 0.267-0.033 0.4-0.067 0 0 0.033 0 0.033 0 0.433-0.067 0.833-0.2 1.2-0.367 0 0 0.033 0 0.033-0.033 0.1-0.067 0.233-0.1 0.333-0.167 0.033 0 0.067-0.033 0.067-0.033 0.1-0.067 0.2-0.133 0.3-0.167 0.033-0.033 0.067-0.033 0.1-0.067 0.067-0.067 0.167-0.133 0.233-0.167 0.033 0 0.033-0.033 0.067-0.033l0.167-0.133c1-0.933 1.633-2.233 1.633-3.7zM8.1 8.433c0 0 0 0.033 0 0-0.033 0.033-0.033 0.033-0.033 0.033-0.1 0.1-0.2 0.167-0.3 0.233 0 0 0 0 0 0-0.033 0-0.033 0.033-0.067 0.033 0 0-0.033 0-0.033 0.033-0.067 0.033-0.1 0.067-0.167 0.1 0 0 0 0 0 0-0.033 0.033-0.067 0.033-0.1 0.067s-0.067 0.033-0.1 0.067-0.133 0.067-0.167 0.1c0 0-0.033 0-0.033 0.033-0.033 0-0.067 0.033-0.1 0.033-0.133 0.067-0.267 0.133-0.4 0.167-0.033 0-0.1 0.033-0.133 0.033 0 0 0 0-0.033 0 0 0 0 0 0 0-0.067 0.033-0.133 0.033-0.2 0.067-0.033 0-0.067 0.033-0.133 0.033 0 0 0 0 0 0-0.033 0-0.067 0-0.067 0-0.067 0-0.133 0.033-0.2 0.033-0.033 0-0.067 0-0.1 0.033 0 0 0 0 0 0-0.067 0-0.1 0-0.167 0.033-0.067 0-0.1 0-0.167 0.033 0 0 0 0-0.033 0s-0.033 0-0.067 0c-0.1 0-0.233 0-0.333 0s-0.233 0-0.333 0c-0.033 0-0.033 0-0.067 0 0 0 0 0-0.033 0-0.067 0-0.1 0-0.167-0.033-0.067 0-0.1 0-0.167-0.033 0 0 0 0 0 0-0.033 0-0.067 0-0.067 0-0.067 0-0.133-0.033-0.2-0.033s-0.133-0.033-0.2-0.033c-0.067-0.033-0.133-0.033-0.233-0.067 0 0 0 0-0.033 0 0 0 0 0-0.033 0s-0.067-0.033-0.133-0.033c-0.133-0.067-0.3-0.133-0.433-0.2-0.033 0-0.067-0.033-0.1-0.033 0 0 0 0 0 0-0.067-0.033-0.133-0.067-0.2-0.133-0.033-0.033-0.067-0.033-0.1-0.067-0.033 0-0.033-0.033-0.067-0.033-0.067-0.033-0.133-0.067-0.167-0.133-0.033-0.033-0.067-0.033-0.067-0.067 0 0 0 0-0.033-0.033 0 0 0 0 0 0-0.1-0.067-0.2-0.167-0.3-0.233 0 0 0 0 0 0s-0.033-0.033-0.033-0.033c-0.1-0.1-0.167-0.167-0.267-0.267-0.033-0.033-0.033-0.033-0.067-0.067-0.067-0.1-0.167-0.2-0.233-0.267-0.033-0.033-0.033-0.067-0.067-0.1-0.067-0.1-0.133-0.2-0.2-0.3 0.067-0.033 0.033-0.067 0-0.1-0.067-0.1-0.1-0.2-0.167-0.3-0.033-0.033-0.033-0.067-0.067-0.1 0-0.133-0.067-0.233-0.1-0.333 0-0.033-0.033-0.1-0.033-0.133-0.033-0.1-0.067-0.2-0.1-0.333 0-0.033-0.033-0.1-0.033-0.133-0.033-0.1-0.033-0.233-0.067-0.333 0-0.033 0-0.1-0.033-0.133-0.033-0.167-0.033-0.333-0.033-0.5 0.033-2.567 2.1-4.633 4.667-4.633s4.633 2.067 4.633 4.633c0 0.167 0 0.333-0.033 0.5 0 0.033 0 0.1-0.033 0.133 0 0.1-0.033 0.233-0.067 0.333 0 0.033-0.033 0.1-0.033 0.133-0.033 0.1-0.067 0.233-0.1 0.333 0 0.033-0.033 0.1-0.033 0.133-0.033 0.1-0.067 0.2-0.133 0.333-0.033 0.033-0.033 0.067-0.067 0.1-0.067 0.1-0.1 0.2-0.167 0.3-0.033 0.033-0.033 0.067-0.067 0.1-0.067 0.1-0.133 0.2-0.2 0.3-0.033 0.033-0.033 0.067-0.067 0.067-0.067 0.1-0.167 0.2-0.233 0.3-0.033 0.033-0.033 0.033-0.067 0.067-0.033 0.133-0.133 0.2-0.233 0.3z"></path>
<path fill="#84bae7" style="fill: var(--color1, #84bae7)" d="M6.233 3.533c-0.033 0.033-0.033 0.1 0 0.133s0.1 0.033 0.133 0c0.033-0.033 0.033-0.1 0-0.133 0-0.033-0.067-0.033-0.133 0z"></path>
<path fill="#84bae7" style="fill: var(--color1, #84bae7)" d="M6.967 2.967c-0.567-0.533-1.433-0.533-1.967 0.033-0.367 0.4-0.5 0.967-0.3 1.433l-0.3 0.133c-0.033 0.033-0.067 0.033-0.1 0.1l-0.167 0.433-0.433 0.2c-0.033 0.033-0.067 0.033-0.1 0.1l-0.167 0.433-0.433 0.2c0-0.033-0.033 0-0.067 0.033l-0.267 0.733c0 0 0 0 0 0-0.067 0.167 0 0.367 0.133 0.5 0.2 0.2 0.5 0.167 0.667 0l2-2.033c0.5 0.2 1.1 0.1 1.5-0.3 0.533-0.6 0.533-1.467 0-2zM6.633 3.933c-0.167 0.167-0.433 0.167-0.633 0s-0.167-0.433 0-0.633c0.167-0.167 0.433-0.167 0.633 0s0.167 0.467 0 0.633z"></path>
</symbol>
<symbol id="icon-user-ban" viewBox="0 0 10 10">
<title>user-ban</title>
<path fill="#84bae7" style="fill: var(--color1, #84bae7)" d="M6.6 2.033c-0.333-0.367-0.867-0.567-1.6-0.567s-1.267 0.2-1.6 0.567c-0.4 0.433-0.367 0.967-0.367 1.067v0.833c-0.1 0.133-0.167 0.267-0.167 0.433v0.633c0 0.2 0.1 0.4 0.233 0.5 0 0.067 0.033 0.133 0.067 0.167l0.3-0.3v-0.1l-0.067-0.033c-0.1-0.067-0.133-0.167-0.133-0.267v-0.633c0-0.1 0.033-0.167 0.1-0.233l0.067-0.067v-1.033c0 0-0.067-0.433 0.267-0.8 0.267-0.3 0.7-0.467 1.333-0.467s1.067 0.167 1.333 0.433c0.033 0.067 0.1 0.1 0.133 0.167l0.267-0.267c-0.067 0.067-0.1 0-0.167-0.033z"></path>
<path fill="#84bae7" style="fill: var(--color1, #84bae7)" d="M1.233 7.667c-0.533-0.767-0.867-1.667-0.867-2.667 0-2.567 2.067-4.633 4.633-4.633 1 0 1.933 0.333 2.667 0.867l0.267-0.267c-0.833-0.6-1.833-0.967-2.933-0.967-2.767 0-5 2.233-5 5 0 1.1 0.367 2.1 0.967 2.933l0.267-0.267z"></path>
<path fill="#84bae7" style="fill: var(--color1, #84bae7)" d="M10 5c0-1.2-0.433-2.3-1.133-3.167l-0.267 0.267c0.633 0.8 1.033 1.8 1.033 2.9 0 1.367-0.6 2.6-1.567 3.467-0.067-0.033-0.1-0.067-0.167-0.1l-1.533-0.767c-0.133-0.067-0.233-0.2-0.233-0.367v-0.533c0.033-0.033 0.067-0.1 0.1-0.133 0.2-0.267 0.367-0.6 0.467-0.933 0.233-0.1 0.367-0.333 0.367-0.6v-0.633c0-0.167-0.067-0.3-0.167-0.433v-0.2l-0.367 0.367 0.033 0.033c0.067 0.067 0.1 0.133 0.1 0.233v0.633c0 0.133-0.1 0.233-0.2 0.3h-0.033l-0.033 0.1c-0.1 0.333-0.267 0.633-0.467 0.9-0.033 0.067-0.1 0.133-0.133 0.167l-0.033 0.067v0.667c0 0.3 0.167 0.567 0.433 0.7l1.533 0.767h0.033c-0.033 0-0.033 0.033-0.067 0.033-0.067 0.033-0.133 0.1-0.2 0.133-0.033 0.033-0.067 0.033-0.1 0.067-0.1 0.067-0.167 0.1-0.267 0.167-0.033 0-0.033 0.033-0.067 0.033-0.2 0.1-0.4 0.2-0.633 0.267 0 0 0 0-0.033 0-0.1 0.033-0.233 0.067-0.333 0.1v0c-0.133 0.033-0.233 0.067-0.367 0.067v0c-0.1 0.033-0.233 0.033-0.333 0.033-0.033 0-0.033 0-0.067 0-0.1 0-0.233 0-0.333 0s-0.233 0-0.333 0c-0.033 0-0.033 0-0.067 0-0.1 0-0.233-0.033-0.333-0.033v0c-0.233-0.033-0.467-0.1-0.7-0.167 0 0 0 0-0.033 0-0.1-0.033-0.233-0.067-0.333-0.133v0c-0.1-0.033-0.2-0.1-0.3-0.133 0 0-0.033 0-0.033-0.033-0.1-0.033-0.2-0.1-0.267-0.167-0.033-0.033-0.067-0.033-0.067-0.067-0.067-0.067-0.167-0.1-0.233-0.167 0 0 0 0-0.033-0.033 0 0 0 0 0.033 0l1.433-0.8c0.233-0.133 0.4-0.4 0.4-0.667v-0.567l-0.367 0.367v0.2c0 0.133-0.067 0.3-0.2 0.367l-0.8 0.433-0.9 0.9c0.1 0.033 0.167 0.1 0.233 0.167 0.033 0.033 0.067 0.033 0.1 0.067 0.1 0.067 0.2 0.133 0.3 0.2 0.033 0 0.033 0 0.067 0 0.1 0.067 0.233 0.133 0.333 0.167h0.033c0.367 0.167 0.8 0.3 1.2 0.367h0.033c0.133 0.033 0.267 0.033 0.4 0.067h0.033c0.133 0 0.267 0.033 0.4 0.033s0.267 0 0.4-0.033c0.033 0 0.033 0 0.067 0 0.133 0 0.267-0.033 0.4-0.067h0.033c0.433-0.067 0.833-0.2 1.2-0.367 0 0 0.033 0 0.033-0.033 0.1-0.067 0.233-0.1 0.333-0.167 0.033 0 0.067-0.033 0.067-0.033 0.1-0.067 0.2-0.133 0.3-0.167 0.033-0.033 0.067-0.033 0.1-0.067 0.067-0.067 0.167-0.133 0.233-0.167 0.033 0 0.033-0.033 0.067-0.033l0.167-0.133c1-0.933 1.633-2.233 1.633-3.7z"></path>
<path fill="#84bae7" style="fill: var(--color1, #84bae7)" d="M1.633 8.7v0 0z"></path>
<path fill="#84bae7" style="fill: var(--color1, #84bae7)" d="M1.077 8.157l7.071-7.071 0.566 0.566-7.071 7.071-0.566-0.566z"></path>
</symbol>
<symbol id="icon-user-lock" viewBox="0 0 10 10">
<title>user-lock</title>
<path fill="#84bae7" style="fill: var(--color1, #84bae7)" d="M8.967 7.833h-0.067v-0.333c0-0.6-0.5-1.133-1.1-1.133-0.033 0-0.067 0-0.067 0-0.6 0-1.1 0.533-1.1 1.133v0.333h-0.067c-0.1 0-0.2 0.1-0.2 0.267v1.667c0 0.133 0.1 0.267 0.2 0.267h2.4c0.1 0 0.2-0.1 0.2-0.267v-1.667c0-0.167-0.1-0.267-0.2-0.267zM8 8.9v0.5c0 0.067-0.033 0.1-0.1 0.1h-0.233c-0.067 0-0.1-0.033-0.1-0.1v-0.5c-0.067-0.067-0.1-0.133-0.1-0.2 0-0.167 0.133-0.3 0.267-0.3 0.033 0 0.067 0 0.067 0 0.167 0 0.267 0.133 0.267 0.3 0 0.067-0.033 0.167-0.067 0.2zM8.433 7.833h-1.333v-0.333c0-0.367 0.3-0.667 0.667-0.667s0.667 0.3 0.667 0.667v0.333z"></path>
<path fill="#84bae7" style="fill: var(--color1, #84bae7)" d="M5.4 9.633c-0.033 0-0.033 0-0.067 0-0.1 0-0.233 0-0.333 0s-0.233 0-0.333 0c-0.033 0-0.033 0-0.067 0-0.1 0-0.233-0.033-0.333-0.033 0 0 0 0 0 0-0.233-0.033-0.467-0.1-0.7-0.167 0 0 0 0-0.033 0-0.1-0.033-0.233-0.067-0.333-0.133 0 0 0 0 0 0-0.1-0.033-0.2-0.1-0.3-0.133 0 0-0.033 0-0.033-0.033-0.1-0.033-0.2-0.1-0.267-0.167-0.033-0.033-0.067-0.033-0.067-0.067-0.067-0.067-0.167-0.1-0.233-0.167 0 0 0 0-0.033-0.033 0 0 0 0 0.033 0l1.433-0.8c0.233-0.133 0.4-0.4 0.4-0.667v-0.667l-0.133-0.067c0 0-0.4-0.467-0.533-1.133v-0.067l-0.067-0.033c-0.1-0.067-0.133-0.167-0.133-0.267v-0.633c0-0.1 0.033-0.167 0.1-0.233l0.067-0.067v-1.033c0 0-0.067-0.433 0.267-0.8 0.267-0.3 0.7-0.467 1.333-0.467s1.067 0.167 1.333 0.433c0.3 0.333 0.267 0.8 0.267 0.8v1.033l0.067 0.067c0.067 0.067 0.1 0.133 0.1 0.233v0.633c0 0.133-0.1 0.233-0.2 0.3l-0.167 0.067-0.033 0.1c-0.1 0.333-0.267 0.633-0.467 0.9-0.033 0.067-0.1 0.133-0.133 0.167l-0.033 0.067v0.667c0 0.067 0 0.167 0.033 0.233 0.1-0.167 0.2-0.333 0.333-0.5v-0.267c0.033-0.033 0.067-0.1 0.1-0.133 0.2-0.267 0.367-0.6 0.467-0.933 0.233-0.1 0.367-0.333 0.367-0.6v-0.633c0-0.167-0.067-0.3-0.167-0.433v-0.867c0-0.1 0.033-0.633-0.333-1.067-0.333-0.367-0.867-0.567-1.6-0.567s-1.267 0.2-1.6 0.567c-0.367 0.433-0.333 0.967-0.333 1.067v0.833c-0.1 0.133-0.167 0.267-0.167 0.433v0.633c0 0.2 0.1 0.4 0.233 0.5 0.133 0.567 0.467 1 0.567 1.167v0.533c0 0.133-0.067 0.3-0.2 0.367l-1.433 0.8c-0.033 0.033-0.1 0.067-0.133 0.1-0.933-0.867-1.533-2.1-1.533-3.467 0-2.567 2.067-4.633 4.633-4.633s4.633 2.067 4.633 4.633c0 0.533-0.1 1.033-0.233 1.5 0.1 0.067 0.2 0.133 0.3 0.233 0.2-0.533 0.3-1.133 0.3-1.733 0-2.767-2.233-5-5-5s-5 2.233-5 5c0 1.467 0.633 2.767 1.633 3.667v0l0.167 0.133c0 0 0.033 0 0.033 0.033 0.067 0.1 0.167 0.167 0.233 0.233 0.033 0.033 0.067 0.033 0.1 0.067 0.1 0.067 0.2 0.133 0.3 0.2 0.033 0 0.033 0 0.067 0 0.1 0.067 0.233 0.133 0.333 0.167 0 0 0.033 0 0.033 0 0.367 0.167 0.8 0.3 1.2 0.367 0 0 0.033 0 0.033 0 0.133 0.033 0.267 0.033 0.4 0.067 0 0 0.033 0 0.033 0 0.133 0 0.267 0.033 0.4 0.033s0.267 0 0.4-0.033c0.033 0 0.033 0 0.067 0 0.167 0.033 0.067-0.333-0.033-0.3z"></path>
</symbol>
<symbol id="icon-many" viewBox="0 0 10 10">
<title>many</title>
<path fill="#84bae7" style="fill: var(--color1, #84bae7)" d="M8.66 8.37h-0.080v0.080h0.080v-0.080z"></path>
<path fill="#fff" style="fill: var(--color2, #fff)" d="M9.61 4.8c0 0.070 0 0.13 0 0.2 0 2.54-2.070 4.61-4.61 4.61s-4.61-2.070-4.61-4.61 2.070-4.61 4.61-4.61c0.43 0 0.86 0.060 1.27 0.18l0.060 0.020v-0.4l-0.030-0.020c-0.42-0.11-0.86-0.17-1.3-0.17-2.76 0-5 2.24-5 5s2.24 5 5 5 5-2.24 5-5c0-0.070 0-0.13-0.010-0.2h-0.38z"></path>
<path fill="#84bae7" style="fill: var(--color1, #84bae7)" d="M3.64 7.8h-1.75v-0.050c0-0.26 0.3-0.4 0.48-0.48 0.040-0.020 0.1-0.050 0.12-0.060v-0.17c-0.080-0.090-0.090-0.14-0.1-0.2v0c-0.040-0.020-0.080-0.050-0.090-0.17-0.010-0.070 0.020-0.11 0.050-0.13-0.010-0.090-0.020-0.32 0.040-0.43 0.060-0.1 0.17-0.15 0.31-0.16 0.080-0.010 0.15 0.030 0.19 0.050 0.010 0 0.010 0 0.010 0.010 0 0 0.020 0 0.030 0.010 0.020 0 0.040 0.010 0.070 0.020 0.090 0.030 0.2 0.12 0.2 0.26 0 0.1-0.010 0.22-0.020 0.27 0.020 0.020 0.040 0.060 0.040 0.12-0.020 0.13-0.060 0.16-0.1 0.19 0 0 0 0 0 0s0 0.010 0 0.010c-0.010 0.040-0.020 0.12-0.080 0.18 0 0.040 0 0.12 0 0.16 0.020 0.020 0.070 0.040 0.12 0.070 0.19 0.1 0.48 0.25 0.48 0.48v0.020zM1.99 7.7h1.54c-0.040-0.15-0.28-0.27-0.42-0.34-0.12-0.060-0.17-0.090-0.17-0.14 0-0.030 0-0.19 0-0.19v-0.020l0.020-0.010c0.050-0.040 0.060-0.11 0.070-0.15 0-0.010 0-0.020 0.010-0.030 0.010-0.030 0.030-0.040 0.050-0.050s0.040-0.020 0.050-0.11c0-0.030-0.010-0.040-0.010-0.040l-0.060-0.020 0.010-0.040c0 0 0.020-0.16 0.020-0.28 0-0.11-0.11-0.16-0.13-0.17-0.010-0.010-0.030-0.010-0.050-0.010s-0.040-0.010-0.050-0.010c0 0-0.010 0-0.020-0.010-0.030-0.010-0.090-0.040-0.14-0.040-0.11 0.010-0.19 0.050-0.23 0.12-0.050 0.090-0.040 0.32-0.030 0.4l0.010 0.050-0.040 0.010c-0.010 0-0.020 0.010-0.020 0.050 0.010 0.070 0.030 0.080 0.040 0.090 0.020 0.010 0.040 0.020 0.050 0.060v0.010c0.010 0.040 0.010 0.070 0.090 0.16l0.010 0.010v0.22c0 0.050-0.060 0.080-0.17 0.14-0.17 0.070-0.39 0.18-0.43 0.34z"></path>
<path fill="#84bae7" style="fill: var(--color1, #84bae7)" d="M8 7.8h-1.75v-0.050c0-0.26 0.3-0.4 0.48-0.48 0.040-0.020 0.1-0.050 0.12-0.060v-0.17c-0.080-0.090-0.090-0.14-0.1-0.2v0c-0.040-0.020-0.080-0.050-0.090-0.17-0.010-0.070 0.020-0.11 0.050-0.13-0.010-0.090-0.020-0.32 0.040-0.43 0.060-0.1 0.17-0.15 0.31-0.16 0.080-0.010 0.15 0.030 0.19 0.050 0.010 0 0.010 0 0.010 0.010 0 0 0.020 0 0.030 0.010 0.020 0 0.040 0.010 0.070 0.020 0.090 0.030 0.2 0.12 0.2 0.26 0 0.1-0.010 0.22-0.020 0.27 0.020 0.020 0.040 0.060 0.040 0.12-0.020 0.13-0.060 0.16-0.1 0.19 0 0 0 0 0 0s0 0.010 0 0.010c-0.010 0.040-0.020 0.12-0.080 0.18 0 0.040 0 0.12 0 0.16 0.020 0.020 0.070 0.040 0.12 0.070 0.19 0.1 0.48 0.25 0.48 0.48v0.020zM6.35 7.7h1.55c-0.040-0.15-0.28-0.27-0.42-0.34-0.13-0.060-0.18-0.090-0.18-0.14 0-0.030 0-0.19 0-0.19v-0.020l0.020-0.010c0.050-0.040 0.060-0.11 0.070-0.15 0-0.010 0-0.020 0.010-0.030 0.010-0.030 0.030-0.040 0.050-0.050s0.040-0.020 0.050-0.11c0-0.030-0.010-0.040-0.010-0.040l-0.060-0.020 0.010-0.040c0 0 0.020-0.16 0.020-0.28 0-0.11-0.11-0.16-0.13-0.17-0.020 0-0.030-0.010-0.050-0.010s-0.040-0.010-0.050-0.010c0 0-0.010 0-0.020-0.010-0.030-0.010-0.090-0.040-0.14-0.040-0.11 0.010-0.19 0.050-0.23 0.12-0.050 0.090-0.040 0.32-0.030 0.4l0.010 0.050-0.040 0.010c-0.010 0-0.020 0.010-0.020 0.050 0.010 0.070 0.030 0.080 0.040 0.090 0.020 0.010 0.040 0.020 0.050 0.060v0.010c0.010 0.040 0.010 0.070 0.090 0.16l0.010 0.010v0.22c0 0.050-0.060 0.080-0.17 0.14-0.16 0.070-0.39 0.18-0.43 0.34z"></path>
<path fill="#84bae7" style="fill: var(--color1, #84bae7)" d="M5.82 7.8h-1.75v-0.050c0-0.26 0.3-0.4 0.48-0.48 0.040-0.020 0.1-0.050 0.12-0.060v-0.17c-0.080-0.090-0.090-0.14-0.1-0.2v0c-0.040-0.020-0.080-0.050-0.090-0.17-0.010-0.070 0.020-0.11 0.050-0.13-0.010-0.090-0.020-0.32 0.040-0.43 0.060-0.1 0.17-0.15 0.31-0.16 0.080-0.010 0.15 0.030 0.19 0.050 0.010 0 0.010 0 0.010 0.010 0 0 0.020 0 0.030 0.010 0.020 0 0.040 0.010 0.070 0.020 0.090 0.030 0.2 0.12 0.2 0.26 0 0.1-0.010 0.22-0.020 0.27 0.020 0.020 0.040 0.060 0.040 0.12-0.020 0.13-0.060 0.16-0.1 0.19 0 0 0 0 0 0s0 0.010 0 0.010c-0.010 0.040-0.020 0.12-0.080 0.18 0 0.040 0 0.12 0 0.16 0.020 0.020 0.070 0.040 0.12 0.070 0.19 0.1 0.48 0.25 0.48 0.48v0.020zM4.17 7.7h1.54c-0.040-0.15-0.28-0.27-0.42-0.34-0.12-0.060-0.17-0.090-0.17-0.14 0-0.030 0-0.19 0-0.19v-0.020l0.020-0.010c0.050-0.040 0.060-0.11 0.070-0.15 0-0.010 0-0.020 0.010-0.030 0.010-0.030 0.030-0.040 0.050-0.050s0.040-0.020 0.050-0.11c0-0.030-0.010-0.040-0.010-0.040l-0.060-0.020 0.010-0.040c0 0 0.020-0.16 0.020-0.28 0-0.11-0.11-0.16-0.13-0.17-0.020 0-0.040-0.010-0.050-0.010-0.020 0-0.040-0.010-0.050-0.010 0 0-0.010 0-0.020-0.010-0.030-0.010-0.090-0.040-0.14-0.040-0.11 0.010-0.19 0.050-0.23 0.12-0.050 0.090-0.040 0.32-0.030 0.4l0.010 0.050-0.040 0.010c-0.010 0-0.020 0.010-0.020 0.050 0.010 0.070 0.030 0.080 0.040 0.090 0.020 0.010 0.040 0.020 0.050 0.060v0.010c0.010 0.040 0.010 0.070 0.090 0.16l0.010 0.010v0.22c0 0.050-0.060 0.080-0.17 0.14-0.16 0.070-0.39 0.18-0.43 0.34z"></path>
<path fill="#84bae7" style="fill: var(--color1, #84bae7)" d="M6.48 4.12h-3.080c-0.080 0-0.15-0.070-0.15-0.15v-2c0-0.080 0.070-0.15 0.15-0.15h3.080c0.080 0 0.15 0.070 0.15 0.15v2c0 0.080-0.070 0.15-0.15 0.15zM3.4 1.95c-0.010 0-0.020 0.010-0.020 0.020v2c0 0.010 0.010 0.020 0.020 0.020h3.080c0.010 0 0.020-0.010 0.020-0.020v-2c0-0.010-0.010-0.020-0.020-0.020h-3.080z"></path>
<path fill="#84bae7" style="fill: var(--color1, #84bae7)" d="M6.2 2.26v1.43h-2.51v-1.43h2.51zM6.29 2.16h-2.7v1.62h2.71v-1.62h-0.010z"></path>
<path fill="#84bae7" style="fill: var(--color1, #84bae7)" d="M5.85 4.6h-2.26v0.13h2.26v-0.13z"></path>
<path fill="#84bae7" style="fill: var(--color1, #84bae7)" d="M6.29 4.6h-0.14v0.13h0.14v-0.13z"></path>
<path fill="#84bae7" style="fill: var(--color1, #84bae7)" d="M6.57 4.32v0.82h-3.26v-0.82h3.26zM6.7 4.19h-3.52v1.080h3.52v-1.080z"></path>
</symbol>
<symbol id="icon-one" viewBox="0 0 10 10">
<title>one</title>
<path fill="#84bae7" style="fill: var(--color1, #84bae7)" d="M8.66 8.37h-0.080v0.080h0.080v-0.080z"></path>
<path fill="#84bae7" style="fill: var(--color1, #84bae7)" d="M6.65 5.42h-3.38v-0.070c0-0.48 0.56-0.75 0.92-0.92 0.1-0.050 0.22-0.1 0.25-0.13v-0.36c-0.17-0.19-0.18-0.28-0.19-0.38v-0.020c0 0-0.010-0.010-0.010-0.010-0.070-0.040-0.15-0.090-0.17-0.31-0.010-0.14 0.050-0.21 0.11-0.25-0.020-0.16-0.050-0.64 0.080-0.85 0.11-0.18 0.31-0.29 0.59-0.31 0.14-0.010 0.29 0.060 0.36 0.090 0.010 0.010 0.020 0.010 0.030 0.010 0.010 0.010 0.040 0.010 0.070 0.020 0.040 0.010 0.080 0.020 0.13 0.030 0.17 0.060 0.36 0.22 0.36 0.48 0 0.21-0.030 0.45-0.040 0.54 0.050 0.040 0.090 0.11 0.080 0.22-0.030 0.24-0.11 0.3-0.18 0.34 0 0-0.010 0.010-0.010 0.010 0 0.010 0 0.020-0.010 0.040-0.020 0.080-0.050 0.23-0.16 0.35 0 0.070 0.010 0.27 0.010 0.34 0.030 0.030 0.15 0.090 0.25 0.14 0.37 0.19 0.94 0.48 0.94 0.92v0.080zM3.4 5.29h3.12c-0.060-0.33-0.56-0.58-0.86-0.74-0.22-0.11-0.32-0.17-0.32-0.25 0-0.060-0.010-0.37-0.010-0.38v-0.030l0.020-0.020c0.1-0.090 0.12-0.23 0.14-0.31 0-0.020 0.010-0.040 0.010-0.050 0.010-0.050 0.050-0.070 0.080-0.080 0.040-0.020 0.090-0.050 0.11-0.24 0.010-0.090-0.040-0.11-0.040-0.11l-0.050-0.020 0.010-0.050c0 0 0.050-0.31 0.050-0.56 0-0.24-0.23-0.34-0.28-0.36-0.030-0.010-0.070-0.020-0.11-0.020-0.040-0.010-0.070-0.010-0.1-0.020-0.010 0-0.020-0.010-0.030-0.010-0.060-0.030-0.18-0.090-0.29-0.080-0.23 0.020-0.4 0.1-0.49 0.25-0.11 0.18-0.080 0.65-0.060 0.82l0.010 0.060-0.060 0.010c-0.020 0-0.070 0.030-0.060 0.13 0.020 0.16 0.060 0.19 0.1 0.21 0.030 0.010 0.070 0.040 0.080 0.1v0.030c0.010 0.090 0.020 0.16 0.18 0.33l0.020 0.020v0.42c0 0.090-0.11 0.14-0.32 0.24-0.32 0.13-0.8 0.35-0.85 0.71z"></path>
<path fill="#84bae7" style="fill: var(--color1, #84bae7)" d="M3.35 7.2h-1.4c-0.070 0-0.13-0.060-0.13-0.13v-0.88c0-0.070 0.060-0.13 0.13-0.13h1.4c0.070 0 0.13 0.060 0.13 0.13v0.88c0 0.070-0.060 0.13-0.13 0.13zM1.95 6.16c-0.020 0-0.030 0.010-0.030 0.030v0.88c0 0.020 0.010 0.030 0.030 0.030h1.4c0.020 0 0.030-0.010 0.030-0.030v-0.88c0-0.020-0.010-0.030-0.030-0.030h-1.4z"></path>
<path fill="#84bae7" style="fill: var(--color1, #84bae7)" d="M3.23 6.3v0.65h-1.17v-0.65h1.17zM3.3 6.24h-1.3v0.78h1.3v-0.78z"></path>
<path fill="#84bae7" style="fill: var(--color1, #84bae7)" d="M3.1 7.47h-1.1v0.070h1.1v-0.070z"></path>
<path fill="#84bae7" style="fill: var(--color1, #84bae7)" d="M3.3 7.47h-0.070v0.070h0.070v-0.070z"></path>
<path fill="#84bae7" style="fill: var(--color1, #84bae7)" d="M3.4 7.38v0.32h-1.5v-0.33h1.5zM3.49 7.28h-1.69v0.52h1.69v-0.52z"></path>
<path fill="#84bae7" style="fill: var(--color1, #84bae7)" d="M7.91 7.2h-1.4c-0.070 0-0.13-0.060-0.13-0.13v-0.88c0-0.070 0.060-0.13 0.13-0.13h1.4c0.070 0 0.13 0.060 0.13 0.13v0.88c0 0.070-0.060 0.13-0.13 0.13zM6.51 6.16c-0.020 0-0.030 0.010-0.030 0.030v0.88c0 0.020 0.010 0.030 0.030 0.030h1.4c0.020 0 0.030-0.010 0.030-0.030v-0.88c0-0.020-0.010-0.030-0.030-0.030h-1.4z"></path>
<path fill="#84bae7" style="fill: var(--color1, #84bae7)" d="M7.79 6.3v0.65h-1.17v-0.65h1.17zM7.86 6.24h-1.3v0.78h1.3v-0.78z"></path>
<path fill="#84bae7" style="fill: var(--color1, #84bae7)" d="M7.66 7.47h-1.11v0.070h1.11v-0.070z"></path>
<path fill="#84bae7" style="fill: var(--color1, #84bae7)" d="M7.95 7.38v0.32h-1.5v-0.33h1.5zM8.050 7.28h-1.69v0.52h1.69v-0.52z"></path>
<path fill="#84bae7" style="fill: var(--color1, #84bae7)" d="M5.63 7.2h-1.4c-0.070 0-0.13-0.060-0.13-0.13v-0.88c0-0.070 0.060-0.13 0.13-0.13h1.4c0.070 0 0.13 0.060 0.13 0.13v0.88c0 0.070-0.060 0.13-0.13 0.13zM4.23 6.16c-0.020 0-0.030 0.010-0.030 0.030v0.88c0 0.020 0.010 0.030 0.030 0.030h1.4c0.020 0 0.030-0.010 0.030-0.030v-0.88c0-0.020-0.010-0.030-0.030-0.030h-1.4z"></path>
<path fill="#84bae7" style="fill: var(--color1, #84bae7)" d="M5.51 6.3v0.65h-1.17v-0.65h1.17zM5.58 6.24h-1.3v0.78h1.3v-0.78z"></path>
<path fill="#84bae7" style="fill: var(--color1, #84bae7)" d="M5.38 7.47h-1.11v0.070h1.11v-0.070z"></path>
<path fill="#84bae7" style="fill: var(--color1, #84bae7)" d="M5.58 7.47h-0.070v0.070h0.070v-0.070z"></path>
<path fill="#84bae7" style="fill: var(--color1, #84bae7)" d="M5.68 7.38v0.32h-1.5v-0.33h1.5zM5.77 7.28h-1.69v0.52h1.69v-0.52z"></path>
<path fill="#fff" style="fill: var(--color2, #fff)" d="M9.61 4.8c0 0.070 0 0.13 0 0.2 0 2.54-2.070 4.61-4.61 4.61s-4.61-2.070-4.61-4.61 2.070-4.61 4.61-4.61c0.43 0 0.86 0.060 1.27 0.18l0.060 0.020v-0.4l-0.030-0.020c-0.42-0.11-0.86-0.17-1.3-0.17-2.76 0-5 2.24-5 5s2.24 5 5 5 5-2.24 5-5c0-0.070 0-0.13-0.010-0.2h-0.38z"></path>
</symbol>
<symbol id="icon-angle-down" viewBox="0 0 10 10">
<title>angle-down</title>
<path fill="#84bae7" style="fill: var(--color1, #84bae7)" d="M5 7.9l-5-5 0.8-0.8 4.2 4.1 4.2-4.1 0.8 0.8z"></path>
</symbol>
<symbol id="icon-angle-up" viewBox="0 0 10 10">
<title>angle-up</title>
<path fill="#84bae7" style="fill: var(--color1, #84bae7)" d="M5 2.1l-5 5 0.8 0.8 4.2-4.1 4.2 4.1 0.8-0.8z"></path>
</symbol>
<symbol id="icon-angle-double-right" viewBox="0 0 10 10">
<title>angle-double-right</title>
<path fill="#84bae7" style="fill: var(--color1, #84bae7)" d="M2.786 9.857l-0.571-0.429 3.429-4.786-3.429-4.071 0.571-0.429 3.714 4.5z"></path>
<path fill="#84bae7" style="fill: var(--color1, #84bae7)" d="M4.929 9.857l-0.571-0.429 3.429-4.786-3.429-4.071 0.571-0.429 3.714 4.5z"></path>
</symbol>
<symbol id="icon-angle-double-left" viewBox="0 0 10 10">
<title>angle-double-left</title>
<path fill="#84bae7" style="fill: var(--color1, #84bae7)" d="M7.214 9.857l0.571-0.429-3.429-4.786 3.429-4.071-0.571-0.429-3.714 4.5z"></path>
<path fill="#84bae7" style="fill: var(--color1, #84bae7)" d="M5.071 9.857l0.571-0.429-3.429-4.786 3.429-4.071-0.571-0.429-3.714 4.5z"></path>
</symbol>
<symbol id="icon-angle-left" viewBox="0 0 10 10">
<title>angle-left</title>
<path fill="#84bae7" style="fill: var(--color1, #84bae7)" d="M6.5 9.857l0.571-0.429-3.429-4.786 3.429-4.071-0.571-0.429-3.714 4.5z"></path>
</symbol>
<symbol id="icon-angle-right" viewBox="0 0 10 10">
<title>angle-right</title>
<path fill="#84bae7" style="fill: var(--color1, #84bae7)" d="M3.5 9.857l-0.571-0.429 3.429-4.786-3.429-4.071 0.571-0.429 3.714 4.5z"></path>
</symbol>
<symbol id="icon-ban" viewBox="0 0 10 10">
<title>ban</title>
<path fill="#84bae7" style="fill: var(--color1, #84bae7)" d="M5 0c-2.786 0-5 2.214-5 5s2.214 5 5 5 5-2.214 5-5c0-2.786-2.214-5-5-5zM0.714 5c0-2.357 1.929-4.286 4.286-4.286 0.786 0 1.571 0.214 2.214 0.643l-5.143 6.786c-0.857-0.786-1.357-1.929-1.357-3.143zM5 9.286c-0.857 0-1.714-0.286-2.357-0.714l5.214-6.786c0.857 0.714 1.429 1.929 1.429 3.214 0 2.357-1.929 4.286-4.286 4.286z"></path>
</symbol>
<symbol id="icon-cog" viewBox="0 0 10 10">
<title>cog</title>
<path fill="#84bae7" style="fill: var(--color1, #84bae7)" d="M4.643 10h0.643c0.429 0 0.714-0.357 0.714-0.714v-0.357c0.357-0.071 0.643-0.214 0.929-0.357l0.214 0.214c0.143 0.143 0.357 0.214 0.5 0.214 0.214 0 0.357-0.071 0.5-0.214l0.5-0.5c0.143-0.143 0.214-0.357 0.214-0.5s-0.071-0.357-0.214-0.5l-0.214-0.214c0.143-0.286 0.286-0.643 0.357-0.929h0.357c0.429 0 0.714-0.357 0.714-0.714v-0.786c0-0.429-0.357-0.714-0.714-0.714h-0.357c-0.071-0.357-0.214-0.643-0.357-0.929l0.214-0.214c0.143-0.143 0.214-0.357 0.214-0.5s-0.071-0.357-0.214-0.5l-0.5-0.5c-0.143-0.143-0.357-0.214-0.5-0.214-0.214 0-0.357 0.071-0.5 0.214l-0.143 0.214c-0.286-0.214-0.571-0.357-0.929-0.429v-0.357c0-0.429-0.357-0.714-0.714-0.714h-0.714c-0.429 0-0.714 0.357-0.714 0.714v0.357c-0.357 0.071-0.643 0.214-0.929 0.429l-0.286-0.286c-0.071-0.143-0.286-0.214-0.5-0.214s-0.357 0.071-0.5 0.214l-0.5 0.5c-0.286 0.286-0.286 0.786 0 1.071l0.214 0.214c-0.143 0.286-0.214 0.571-0.357 0.929h-0.286c-0.429 0-0.714 0.357-0.714 0.714v0.643c0 0.429 0.357 0.714 0.714 0.714h0.357c0.071 0.357 0.214 0.643 0.357 0.929l-0.214 0.214c-0.286 0.286-0.286 0.786 0 1.071l0.5 0.5c0.143 0.143 0.357 0.214 0.5 0.214s0.357-0.071 0.5-0.214l0.214-0.214c0.286 0.143 0.643 0.286 0.929 0.357v0.357c0 0.429 0.357 0.786 0.714 0.786zM3.143 7.786c-0.071-0.071-0.143-0.071-0.214-0.071s-0.143 0-0.214 0.071l-0.429 0.429c0 0 0 0-0.071 0s0 0-0.071 0l-0.5-0.5c0 0 0-0.071 0-0.071l0.5-0.357c0.143-0.143 0.143-0.286 0.071-0.429-0.286-0.357-0.429-0.786-0.5-1.214 0-0.143-0.143-0.286-0.357-0.286h-0.571c0 0-0.071 0-0.071-0.071v-0.643c0 0 0-0.071 0.071-0.071h0.643c0.143 0 0.286-0.143 0.357-0.286 0.071-0.429 0.286-0.857 0.5-1.214 0-0.071 0-0.286-0.143-0.357l-0.429-0.429c0 0 0-0.071 0-0.071l0.5-0.5c0 0 0 0 0.071 0s0 0 0.071 0l0.357 0.429c0.143 0.143 0.286 0.143 0.429 0.071 0.357-0.214 0.786-0.429 1.214-0.5 0.143 0 0.286-0.143 0.286-0.357v-0.643c0 0 0-0.071 0.071-0.071h0.643c0 0 0.071 0 0.071 0.071v0.643c0 0.143 0.143 0.286 0.286 0.357 0.429 0.071 0.857 0.286 1.214 0.5 0.143 0.071 0.286 0.071 0.429-0.071l0.429-0.429c0 0 0 0 0.071 0 0 0 0 0 0.071 0l0.5 0.5c0 0 0 0 0 0.071 0 0 0 0 0 0.071l-0.571 0.357c-0.143 0.143-0.143 0.286-0.071 0.429 0.214 0.357 0.429 0.786 0.5 1.214 0 0.143 0.143 0.286 0.357 0.286h0.643c0 0 0.071 0 0.071 0.071v0.643c0 0 0 0.071-0.071 0.071h-0.643c-0.143 0-0.286 0.143-0.357 0.286-0.071 0.429-0.286 0.857-0.5 1.214-0.071 0.143-0.071 0.286 0.071 0.429l0.429 0.429c0 0 0 0 0 0.071s0 0 0 0.071l-0.5 0.5c0 0 0 0-0.071 0 0 0 0 0-0.071 0l-0.357-0.571c-0.143-0.143-0.286-0.143-0.429-0.071-0.357 0.214-0.786 0.429-1.214 0.5-0.143 0-0.286 0.143-0.286 0.357v0.643c0 0 0 0.071-0.071 0.071h-0.643c0 0-0.071 0-0.071-0.071v-0.643c0-0.143-0.143-0.286-0.286-0.357-0.357-0.071-0.786-0.286-1.143-0.5z"></path>
<path fill="#84bae7" style="fill: var(--color1, #84bae7)" d="M7 5c0-1.143-0.929-2-2-2s-2 0.857-2 2 0.857 2 2 2 2-0.929 2-2zM3.643 5c0-0.714 0.571-1.357 1.357-1.357s1.357 0.571 1.357 1.357-0.643 1.357-1.357 1.357-1.357-0.643-1.357-1.357z"></path>
</symbol>
<symbol id="icon-flash" viewBox="0 0 10 10">
<title>flash</title>
<path fill="#6faeee" style="fill: var(--color5, #6faeee)" d="M10 2.857c-0.071-0.143-0.214-0.214-0.357-0.214l-2.286 0.571v-2.286c0-0.143-0.071-0.286-0.214-0.357-0.214-0.071-0.357 0-0.429 0.143l-1.143 1.929-1.143-2.429c-0.071-0.143-0.143-0.214-0.286-0.214s-0.214 0.143-0.286 0.357l-0.214 3-1.643-0.929c-0.143-0.071-0.286 0-0.357 0.071-0.071 0.143-0.143 0.286-0.071 0.429l0.857 2.071-2.214 1.071c-0.143 0.071-0.214 0.214-0.214 0.357s0.143 0.286 0.286 0.286l2.214 0.071-0.214 0.929v0.143c0 0 0 0.071 0 0l-0.143 0.929c0 0.214 0.071 0.429 0.214 0.643l0.357 0.429 1.286-1.857 1.143 1.143c0 0 0 0 0 0v-0.071l0.357-0.857 0.214-0.643 1.643 1.143 0.5-1.071-0.5-1.357 1.071 0.214c0.286-0.5 0.714-0.786 1.214-0.786l-1.786-1 2-1.429c0.143-0.071 0.143-0.286 0.143-0.429zM7.5 4.5c-0.071 0.071-0.143 0.214-0.143 0.286 0 0.143 0.071 0.214 0.143 0.286l1.071 0.714h-1.286c-0.071 0-0.214 0.071-0.286 0.143-0.071 0.143-0.071 0.286 0 0.357l0.286 1.643-1.429-1.143c-0.071-0.071-0.143-0.071-0.286 0s-0.143 0.143-0.143 0.214l-0.071 0.214c-0.071 0.214-0.071 0.214-0.143 0.429-0.071 0.143-0.143 0.429-0.143 0.571l-1.286-1.214-0.214 0.143-0.714 1.214 0.286-1.714 0.071-0.143c0-0.143 0-0.071-0.071-0.143s-0.143-0.071-0.214-0.071h-2.071l2-0.929c0.071-0.071 0.143-0.143 0.143-0.214s0-0.214 0-0.286l-0.786-1.714 1.429 0.786c0.071 0.071 0.214 0.071 0.286 0s0.143-0.143 0.143-0.286l0.214-2.571 0.929 2.143c0.071 0.143 0.143 0.214 0.286 0.214s0.214-0.071 0.286-0.143l1.071-1.857v2c0 0.143 0.071 0.214 0.143 0.286s0.143 0.071 0.286 0.071l1.857-0.429-1.643 1.143z"></path>
</symbol>
<symbol id="icon-bullhorn" viewBox="0 0 10 10">
<title>bullhorn</title>
<path fill="#84bae7" style="fill: var(--color1, #84bae7)" d="M9.286 3.5h-0.143v-2.786l-0.5 0.357c-1.286 1.071-2.643 1.714-3.5 2-0.571 0.214-1 0.357-1.286 0.429v-0.214h-3.071v0.5h-0.786v2.214h0.786v0.5h0.643l0.571 2.714h1.857l-0.571-2.714h0.5v-0.214c0.286 0.071 0.714 0.214 1.286 0.429 0.857 0.357 2.214 0.929 3.5 2l0.5 0.357v-2.786h0.214c0.429 0 0.714-0.357 0.714-0.714v-1.357c0-0.357-0.357-0.714-0.714-0.714zM0.786 5.429h-0.214v-1.071h0.214v1.071zM2.5 8.643l-0.5-2.143h0.643l0.5 2.143h-0.643zM3.214 5.929v0 0h-1.857v-2.071h1.857v2.071zM8.5 3.5v4.357c-1.214-0.857-2.357-1.429-3.214-1.714-0.643-0.286-1.143-0.429-1.429-0.5v-1.5c0.286-0.071 0.786-0.214 1.5-0.429 0.786-0.286 2-0.857 3.214-1.714v1.5zM9.429 5.571c0 0.071-0.071 0.143-0.143 0.143h-0.143v-1.643h0.143c0.071 0 0.143 0.071 0.143 0.143v1.357z"></path>
</symbol>
<symbol id="icon-alert" viewBox="0 0 10 10">
<title>alert</title>
<path fill="#84bae7" style="fill: var(--color1, #84bae7)" d="M5.929 5.214c0-0.214-0.143-0.357-0.357-0.357s-0.357 0.143-0.357 0.357c0 0.214 0.143 0.357 0.357 0.357s0.357-0.143 0.357-0.357z"></path>
<path fill="#84bae7" style="fill: var(--color1, #84bae7)" d="M7.929 8.071h-0.071l-0.571-3.5c-0.143-0.786-0.714-1.286-1.429-1.286h-1.714c-0.714 0-1.286 0.571-1.429 1.286l-0.571 3.5h-0.071c-0.429 0-0.714 0.357-0.714 0.786v0.786c0 0.214 0.143 0.357 0.357 0.357h6.571c0.214 0 0.357-0.143 0.357-0.357v-0.786c0-0.429-0.286-0.786-0.714-0.786zM2.857 8.071l0.571-3.429c0.071-0.429 0.357-0.714 0.714-0.714h1.714c0.357 0 0.643 0.286 0.714 0.714l0.571 3.429h-4.286zM7.929 8.857v0.429h-5.857v-0.429h5.857z"></path>
<path fill="#84bae7" style="fill: var(--color1, #84bae7)" d="M5.929 5.643c-0.143 0-0.214-0.071-0.286 0-0.214 0-0.357 0.214-0.286 0.429l0.286 1.643c0 0.071 0.071 0.214 0.143 0.214 0.071 0.071 0.143 0.071 0.214 0.071 0 0 0.071 0 0.071 0 0.214-0.071 0.286-0.214 0.286-0.429l-0.286-1.643c0-0.071-0.071-0.214-0.143-0.286z"></path>
<path fill="#84bae7" style="fill: var(--color1, #84bae7)" d="M9.5 4.857h-1.571c-0.214 0-0.357 0.143-0.357 0.357s0.143 0.357 0.357 0.357h1.571c0.214 0 0.357-0.143 0.357-0.357s-0.143-0.357-0.357-0.357z"></path>
<path fill="#84bae7" style="fill: var(--color1, #84bae7)" d="M2.429 5.214c0-0.214-0.143-0.357-0.357-0.357h-1.571c-0.214 0-0.357 0.143-0.357 0.357s0.143 0.357 0.357 0.357h1.571c0.214 0 0.357-0.143 0.357-0.357z"></path>
<path fill="#84bae7" style="fill: var(--color1, #84bae7)" d="M7.071 3.286v0c0.071 0 0.214-0.071 0.286-0.143l1.071-1.143c0.143-0.143 0.143-0.357 0-0.5v0c-0.143-0.071-0.214-0.071-0.286-0.071v0c-0.143 0-0.214 0-0.286 0.071l-1.071 1.143c-0.143 0.143-0.143 0.357 0 0.5 0.071 0.143 0.214 0.143 0.286 0.143z"></path>
<path fill="#84bae7" style="fill: var(--color1, #84bae7)" d="M2.643 3.214c0.071 0.071 0.214 0.071 0.286 0.071s0.214-0.071 0.286-0.143c0.143-0.143 0.143-0.357 0-0.5l-1.071-1.143c-0.071-0.071-0.143-0.071-0.286-0.071v0c-0.071 0-0.143 0-0.214 0.071-0.143 0.143-0.143 0.357 0 0.5l1 1.214z"></path>
<path fill="#84bae7" style="fill: var(--color1, #84bae7)" d="M5 2.357c0.214 0 0.357-0.143 0.357-0.357v-1.643c0-0.214-0.143-0.357-0.357-0.357s-0.357 0.143-0.357 0.357v1.643c0 0.214 0.143 0.357 0.357 0.357z"></path>
</symbol>
<symbol id="icon-info" viewBox="0 0 10 10">
<title>info</title>
<path fill="#84bae7" style="fill: var(--color1, #84bae7)" d="M5 0c-2.786 0-5 2.071-5 4.714 0 1.214 0.5 2.429 1.429 3.286-0.429 0.786-1.071 1.214-1.143 1.214s-0.214 0.143-0.214 0.214c-0.071 0.071-0.071 0.214-0.071 0.286 0.071 0.214 0.214 0.286 0.357 0.286 0 0 0.071 0 0.071 0 0.214 0 1.929 0 3.286-0.714 0.071 0 0.143 0 0.143 0 0.357 0.071 0.714 0.143 1.071 0.143 2.786 0 5-2.143 5-4.714 0.071-2.643-2.143-4.714-4.929-4.714zM3.429 8.571c-0.571 0.286-1.214 0.5-1.929 0.643 0.214-0.286 0.5-0.643 0.714-1.143 0.071-0.143 0-0.357-0.143-0.429-0.857-0.714-1.357-1.786-1.357-2.929 0-2.143 1.857-3.929 4.214-3.929s4.214 1.786 4.214 3.929c0 2.143-1.857 3.929-4.214 3.929-0.429 0-0.786-0.071-1.214-0.143-0.071-0.071-0.214 0-0.286 0.071z"></path>
<path fill="#84bae7" style="fill: var(--color1, #84bae7)" d="M5.5 3.143h-0.857c-0.071 0-0.143-0.071-0.143-0.143v-0.571c0-0.071 0.071-0.143 0.143-0.143h0.786c0.071 0 0.143 0.071 0.143 0.143v0.571c0 0.143 0 0.143-0.071 0.143zM5.429 7.214h-0.786c-0.071 0-0.143-0.071-0.143-0.143v-3.357c0.071-0.071 0.071-0.143 0.143-0.143h0.786c0.071 0 0.143 0.071 0.143 0.143v3.357c0 0.071-0.071 0.143-0.143 0.143z"></path>
</symbol>
<symbol id="icon-exclamation" viewBox="0 0 10 10">
<title>exclamation</title>
<path fill="#84bae7" style="fill: var(--color1, #84bae7)" d="M9.857 8.214l-4.143-7.214c-0.357-0.571-1.071-0.571-1.429 0l-4.143 7.214c-0.286 0.5 0.071 1.214 0.714 1.214h8.357c0.571 0 1-0.643 0.643-1.214zM9.214 8.714h-8.429c0 0-0.071-0.071-0.071-0.143l4.214-7.214c0-0.071 0.071-0.071 0.143 0l4.214 7.214c0 0.071-0.071 0.143-0.071 0.143z"></path>
<path fill="#84bae7" style="fill: var(--color1, #84bae7)" d="M4.5 7.5c0-0.143 0.071-0.286 0.143-0.357s0.214-0.143 0.357-0.143c0.143 0 0.286 0.071 0.357 0.143s0.143 0.214 0.143 0.357-0.071 0.214-0.143 0.357c-0.071 0.071-0.214 0.143-0.357 0.143s-0.286-0.071-0.357-0.143-0.143-0.214-0.143-0.357zM5.286 6.5h-0.571l-0.143-3.214h0.857l-0.143 3.214z"></path>
</symbol>
<symbol id="icon-bell" viewBox="0 0 10 10">
<title>bell</title>
<path fill="#84bae7" style="fill: var(--color1, #84bae7)" d="M9.571 7.429c-0.857-0.714-1.643-1.786-1.643-4.429 0-1.714-1.286-3-2.929-3s-2.929 1.286-2.929 2.929c0 2.643-0.786 3.714-1.643 4.429-0.286 0.286-0.429 0.643-0.429 0.929 0 0.214 0.214 0.429 0.429 0.429h2.929c0.214 0.786 0.857 1.286 1.643 1.286s1.429-0.5 1.643-1.286h2.929c0.214 0 0.429-0.214 0.429-0.429 0-0.357-0.143-0.643-0.429-0.857zM5 9.143c-0.286 0-0.571-0.143-0.714-0.429h1.429c-0.143 0.286-0.429 0.429-0.714 0.429zM8.857 7.857h-7.714c1.286-1.143 1.786-2.643 1.786-4.929 0-1.143 0.929-2.071 2.071-2.071s2.071 0.929 2.071 2.071c0 2.286 0.5 3.786 1.786 4.929z"></path>
</symbol>
</defs>
</svg>
